<?xml version="1.0" standalone="no"?>
<!DOCTYPE svg PUBLIC "-//W3C//DTD SVG 20010904//EN"
 "http://www.w3.org/TR/2001/REC-SVG-20010904/DTD/svg10.dtd">
<svg version="1.0" xmlns="http://www.w3.org/2000/svg"
 width="488.000000pt" height="488.000000pt" viewBox="0 0 488.000000 488.000000"
 preserveAspectRatio="xMidYMid meet">
<metadata>
Created by potrace 1.11, written by Peter Selinger 2001-2013
</metadata>
<g transform="translate(0.000000,488.000000) scale(0.100000,-0.100000)"
fill="#000000" stroke="none">
<path d="M0 2888 c0 -1095 3 -1988 7 -1985 3 4 10 31 14 60 4 28 44 257 88
507 44 250 134 766 200 1145 67 380 124 700 128 712 5 12 178 152 398 320 215
164 660 505 990 757 330 253 604 463 609 467 6 5 -539 9 -1212 9 l-1222 0 0
-1992z"/>
<path d="M2470 4866 c8 -8 452 -348 985 -756 534 -408 978 -749 987 -759 17
-16 35 -120 333 -1826 53 -302 98 -554 100 -560 2 -5 4 873 4 1953 l1 1962
-1212 0 c-1042 0 -1210 -2 -1198 -14z"/>
<path d="M2279 4318 c-86 -139 -315 -508 -508 -820 -193 -312 -354 -575 -357
-583 -5 -13 110 -15 1026 -15 916 0 1031 2 1026 15 -3 8 -164 271 -357 583
-193 312 -422 681 -508 820 -85 138 -158 252 -161 252 -3 0 -76 -114 -161
-252z"/>
<path d="M2710 4464 c0 -3 88 -147 196 -322 1166 -1881 1706 -2754 1710 -2767
4 -8 9 -15 14 -15 4 0 -1 44 -11 98 -10 53 -84 475 -165 937 -127 727 -149
843 -168 862 -26 27 -1576 1214 -1576 1207z"/>
<path d="M1724 4116 c-238 -182 -590 -452 -782 -599 -275 -210 -352 -274 -356
-295 -3 -15 -73 -414 -156 -887 -83 -473 -155 -880 -159 -905 -9 -41 -8 -43 5
-25 8 11 250 400 538 865 288 465 709 1144 935 1509 226 365 410 665 409 666
-2 1 -197 -147 -434 -329z"/>
<path d="M1470 2731 c0 -8 82 -141 633 -1031 121 -195 245 -396 276 -447 31
-51 58 -92 61 -92 3 0 30 41 61 92 31 51 155 252 276 447 551 890 633 1023
633 1031 0 5 -402 9 -970 9 -568 0 -970 -4 -970 -9z"/>
<path d="M1015 2278 c-143 -232 -373 -604 -512 -827 l-251 -406 1025 -3 c565
-1 1028 0 1030 2 5 4 -1015 1650 -1024 1653 -5 1 -125 -187 -268 -419z"/>
<path d="M3081 1874 c-281 -455 -510 -829 -508 -830 2 -2 465 -3 1030 -2
l1025 3 -251 406 c-139 223 -369 595 -512 827 -143 232 -263 421 -266 422 -3
0 -236 -372 -518 -826z"/>
<path d="M4865 940 c-3 -5 -1 -18 4 -27 9 -16 10 -14 11 10 0 28 -5 34 -15 17z"/>
<path d="M0 446 l0 -446 1218 1 c1186 0 1216 1 1167 19 -417 150 -2372 863
-2377 867 -5 2 -8 -196 -8 -441z"/>
<path d="M3664 445 l-1210 -440 1210 -3 c665 -1 1211 -1 1213 1 2 2 2 202 1
443 l-3 440 -1211 -441z"/>
<path d="M561 866 c2 -2 426 -158 941 -345 l938 -341 937 341 c516 187 940
343 942 345 2 2 -843 4 -1879 4 -1036 0 -1881 -2 -1879 -4z"/>
</g>
</svg>
