<?xml version="1.0" encoding="utf-8"?>
<!-- Generator: Adobe Illustrator 24.0.1, SVG Export Plug-In . SVG Version: 6.00 Build 0)  -->
<svg version="1.1" id="Layer_1" xmlns="http://www.w3.org/2000/svg" xmlns:xlink="http://www.w3.org/1999/xlink" x="0px" y="0px"
	 viewBox="0 0 1080 1920" style="enable-background:new 0 0 1080 1920;" xml:space="preserve">
<style type="text/css">
	.st0{fill:#FFFFFF;}
	.st1{fill:#D3242D;}
	.st2{fill:none;}
	.st3{font-family:'MyriadPro-Regular';}
	.st4{font-size:44.3009px;}
	.st5{font-size:50.342px;}
</style>
<rect class="st0" width="1080" height="1920"/>
<g>
	<g>
		<g>
			<g>
				<g>
					<path d="M239.06,1661.72h-12.84v33.71h-8.25v-33.71h-12.84V1654h33.94V1661.72z"/>
					<path d="M252.97,1670.69h19.95V1654h8.25v41.43h-8.25v-17.05h-19.95v17.05h-8.26V1654h8.26V1670.69z"/>
					<path d="M321.54,1695.43h-30.95V1654h30.72v7.58h-22.46v9.17h21.42v7.58h-21.42v9.53h22.7V1695.43z"/>
					<path d="M352.9,1680.28v15.15h-8.26V1654h16.9c2.47,0,4.65,0.31,6.54,0.93c1.89,0.62,3.48,1.5,4.75,2.65
						c1.27,1.15,2.24,2.53,2.89,4.14c0.65,1.62,0.98,3.43,0.98,5.45c0,1.99-0.32,3.8-0.98,5.42c-0.65,1.62-1.61,2.99-2.89,4.13
						c-1.27,1.14-2.85,2.01-4.73,2.63c-1.88,0.62-4.05,0.93-6.5,0.93H352.9z M352.9,1661.61v11.13h8.49c2.27,0,3.97-0.46,5.12-1.37
						c1.14-0.92,1.72-2.31,1.72-4.19c0-1.85-0.57-3.24-1.72-4.17c-1.15-0.93-2.85-1.39-5.12-1.39H352.9z"/>
					<path d="M403.57,1653.23c3.2,0,6.12,0.54,8.79,1.61c2.66,1.08,4.96,2.57,6.88,4.48c1.92,1.91,3.42,4.18,4.5,6.81
						c1.08,2.63,1.61,5.48,1.61,8.58c0,3.1-0.54,5.96-1.61,8.58c-1.08,2.62-2.57,4.89-4.5,6.81c-1.92,1.91-4.22,3.41-6.88,4.48
						c-2.66,1.08-5.59,1.61-8.79,1.61c-3.2,0-6.13-0.54-8.79-1.61c-2.66-1.07-4.96-2.57-6.88-4.48c-1.92-1.91-3.42-4.18-4.48-6.81
						c-1.07-2.62-1.6-5.48-1.6-8.58c0-3.1,0.53-5.96,1.6-8.58c1.07-2.62,2.56-4.89,4.48-6.81c1.92-1.91,4.22-3.41,6.88-4.48
						C397.44,1653.77,400.37,1653.23,403.57,1653.23z M403.57,1661.16c-1.89,0-3.65,0.33-5.25,0.99c-1.61,0.66-3,1.58-4.17,2.77
						c-1.17,1.18-2.09,2.61-2.74,4.28c-0.65,1.67-0.98,3.51-0.98,5.52c0,2.01,0.32,3.85,0.98,5.52c0.65,1.67,1.56,3.09,2.74,4.28
						c1.17,1.18,2.56,2.11,4.17,2.77c1.61,0.66,3.36,0.99,5.25,0.99c1.91,0,3.67-0.33,5.28-0.99c1.61-0.66,2.99-1.58,4.16-2.77
						c1.16-1.18,2.07-2.61,2.72-4.28c0.65-1.67,0.98-3.51,0.98-5.52c0-2.01-0.33-3.85-0.98-5.52c-0.65-1.67-1.56-3.09-2.72-4.28
						c-1.16-1.18-2.55-2.11-4.16-2.77C407.24,1661.49,405.48,1661.16,403.57,1661.16z"/>
					<path d="M460.59,1664.45c-1.64-1.01-3.44-1.84-5.4-2.51c-1.96-0.67-4.08-1.01-6.35-1.01c-1.16,0-2.23,0.11-3.2,0.34
						c-0.97,0.23-1.8,0.55-2.5,0.98c-0.7,0.43-1.25,0.94-1.64,1.55c-0.39,0.61-0.59,1.31-0.59,2.1c0,0.77,0.21,1.41,0.64,1.92
						c0.43,0.51,1.02,0.95,1.78,1.3c0.76,0.36,1.66,0.66,2.71,0.9c1.05,0.25,2.19,0.47,3.43,0.66l2.34,0.38
						c1.85,0.3,3.59,0.73,5.19,1.3c1.61,0.57,3,1.32,4.19,2.25c1.18,0.93,2.12,2.05,2.8,3.37c0.68,1.32,1.02,2.88,1.02,4.68
						c0,2.29-0.46,4.28-1.39,5.96c-0.93,1.69-2.18,3.09-3.74,4.2c-1.57,1.11-3.37,1.95-5.41,2.5s-4.18,0.83-6.41,0.83
						c-1.58,0-3.17-0.11-4.76-0.34c-1.6-0.23-3.15-0.57-4.66-1.02c-1.51-0.45-2.95-1.02-4.32-1.7c-1.37-0.68-2.61-1.47-3.71-2.35
						l4.29-6.66c0.75,0.59,1.61,1.16,2.57,1.7c0.97,0.54,2.02,1.02,3.15,1.43c1.13,0.41,2.33,0.74,3.58,0.98
						c1.25,0.24,2.55,0.36,3.89,0.36c1.15,0,2.21-0.11,3.21-0.33c0.99-0.22,1.86-0.54,2.59-0.98c0.73-0.43,1.3-0.96,1.72-1.57
						c0.41-0.61,0.62-1.32,0.62-2.13c0-0.71-0.19-1.32-0.56-1.84c-0.38-0.51-0.93-0.95-1.67-1.32c-0.74-0.36-1.66-0.68-2.75-0.95
						c-1.09-0.27-2.36-0.52-3.8-0.76l-2.63-0.41c-1.84-0.3-3.52-0.72-5.06-1.29c-1.54-0.56-2.87-1.32-4-2.26
						c-1.12-0.95-2-2.1-2.63-3.46c-0.63-1.36-0.95-2.98-0.95-4.85c0-2.15,0.45-4.05,1.35-5.7c0.9-1.65,2.1-3.02,3.61-4.11
						c1.51-1.09,3.26-1.92,5.25-2.49c1.99-0.56,4.09-0.84,6.3-0.84c1.44,0,2.84,0.08,4.19,0.25c1.35,0.17,2.67,0.43,3.95,0.78
						c1.28,0.36,2.56,0.82,3.83,1.38c1.27,0.56,2.56,1.23,3.86,2L460.59,1664.45z"/>
					<path d="M499.92,1664.45c-1.64-1.01-3.44-1.84-5.4-2.51c-1.96-0.67-4.08-1.01-6.35-1.01c-1.16,0-2.23,0.11-3.2,0.34
						c-0.97,0.23-1.8,0.55-2.5,0.98c-0.7,0.43-1.25,0.94-1.64,1.55c-0.39,0.61-0.59,1.31-0.59,2.1c0,0.77,0.21,1.41,0.64,1.92
						c0.43,0.51,1.02,0.95,1.78,1.3c0.76,0.36,1.66,0.66,2.71,0.9c1.05,0.25,2.19,0.47,3.43,0.66l2.34,0.38
						c1.85,0.3,3.59,0.73,5.19,1.3c1.61,0.57,3,1.32,4.19,2.25c1.18,0.93,2.12,2.05,2.8,3.37c0.68,1.32,1.02,2.88,1.02,4.68
						c0,2.29-0.46,4.28-1.39,5.96c-0.93,1.69-2.18,3.09-3.74,4.2c-1.57,1.11-3.37,1.95-5.41,2.5s-4.18,0.83-6.41,0.83
						c-1.58,0-3.17-0.11-4.76-0.34c-1.6-0.23-3.15-0.57-4.66-1.02c-1.51-0.45-2.95-1.02-4.32-1.7c-1.37-0.68-2.61-1.47-3.71-2.35
						l4.29-6.66c0.75,0.59,1.61,1.16,2.57,1.7c0.97,0.54,2.02,1.02,3.15,1.43c1.13,0.41,2.33,0.74,3.58,0.98
						c1.25,0.24,2.55,0.36,3.89,0.36c1.15,0,2.21-0.11,3.21-0.33c0.99-0.22,1.86-0.54,2.59-0.98c0.73-0.43,1.3-0.96,1.72-1.57
						c0.41-0.61,0.62-1.32,0.62-2.13c0-0.71-0.19-1.32-0.56-1.84c-0.38-0.51-0.93-0.95-1.67-1.32c-0.74-0.36-1.66-0.68-2.75-0.95
						c-1.09-0.27-2.36-0.52-3.8-0.76l-2.63-0.41c-1.84-0.3-3.52-0.72-5.06-1.29c-1.54-0.56-2.87-1.32-4-2.26
						c-1.12-0.95-2-2.1-2.63-3.46c-0.63-1.36-0.95-2.98-0.95-4.85c0-2.15,0.45-4.05,1.35-5.7c0.9-1.65,2.1-3.02,3.61-4.11
						c1.51-1.09,3.26-1.92,5.25-2.49c1.99-0.56,4.09-0.84,6.3-0.84c1.44,0,2.84,0.08,4.19,0.25c1.35,0.17,2.67,0.43,3.95,0.78
						c1.28,0.36,2.56,0.82,3.83,1.38c1.27,0.56,2.56,1.23,3.86,2L499.92,1664.45z"/>
					<path d="M520.1,1695.43h-8.26V1654h8.26V1695.43z"/>
					<path d="M546.44,1654c2.41,0,4.58,0.23,6.52,0.68c1.94,0.45,3.6,1.15,4.96,2.1c1.36,0.95,2.41,2.14,3.14,3.58
						c0.73,1.44,1.09,3.15,1.09,5.12c0,1.05-0.15,2.03-0.46,2.96c-0.31,0.93-0.72,1.77-1.26,2.53c-0.53,0.76-1.16,1.42-1.89,1.98
						c-0.73,0.56-1.53,1-2.4,1.32c0.95,0.32,1.84,0.77,2.68,1.36c0.84,0.59,1.57,1.29,2.19,2.09c0.62,0.8,1.11,1.69,1.48,2.68
						c0.37,0.99,0.55,2.04,0.55,3.17c0,1.99-0.34,3.73-1.04,5.21c-0.69,1.48-1.7,2.71-3.03,3.7c-1.33,0.99-2.96,1.73-4.9,2.22
						c-1.93,0.49-4.14,0.74-6.63,0.74h-17.93V1654H546.44z M537.77,1661.28v9.68h8.46c1.03,0,1.98-0.06,2.87-0.19
						c0.89-0.13,1.66-0.37,2.32-0.74s1.18-0.86,1.55-1.49c0.37-0.63,0.56-1.45,0.56-2.46c0-0.97-0.19-1.76-0.58-2.38
						c-0.39-0.62-0.91-1.11-1.57-1.47c-0.66-0.36-1.43-0.6-2.32-0.74c-0.89-0.14-1.85-0.21-2.87-0.21H537.77z M537.77,1678.21v9.94
						l9.26,0.03c1.15,0,2.18-0.07,3.09-0.22c0.92-0.15,1.7-0.41,2.34-0.8c0.64-0.38,1.13-0.9,1.48-1.55
						c0.34-0.65,0.52-1.47,0.52-2.45c0-0.97-0.17-1.77-0.52-2.41c-0.35-0.64-0.84-1.15-1.48-1.52c-0.64-0.38-1.42-0.64-2.34-0.78
						c-0.92-0.15-1.95-0.22-3.09-0.22H537.77z"/>
					<path d="M600.63,1695.43h-30.16V1654h8.26v33.7h21.9V1695.43z"/>
					<path d="M637.23,1695.43h-30.95V1654h30.72v7.58h-22.46v9.17h21.42v7.58h-21.42v9.53h22.7V1695.43z"/>
					<path d="M677.41,1654c3.24,0,6.18,0.49,8.82,1.48c2.64,0.99,4.91,2.38,6.79,4.19c1.88,1.8,3.34,3.99,4.36,6.54
						c1.03,2.56,1.54,5.39,1.54,8.51c0,3.12-0.51,5.95-1.54,8.51c-1.03,2.56-2.48,4.74-4.36,6.54c-1.88,1.8-4.15,3.2-6.79,4.19
						c-2.64,0.99-5.58,1.48-8.82,1.48h-17.08V1654H677.41z M668.59,1661.72v25.98h8.73c2.19,0,4.09-0.32,5.71-0.98
						c1.62-0.65,2.96-1.55,4.04-2.71c1.08-1.15,1.88-2.52,2.41-4.11c0.53-1.59,0.8-3.32,0.8-5.19c0-1.89-0.27-3.64-0.8-5.24
						c-0.53-1.6-1.34-2.97-2.41-4.11c-1.08-1.15-2.42-2.04-4.04-2.68c-1.62-0.64-3.52-0.96-5.71-0.96H668.59z"/>
					<path d="M723.87,1654c2.47,0,4.65,0.28,6.54,0.86c1.89,0.57,3.48,1.4,4.76,2.47c1.28,1.08,2.25,2.4,2.9,3.97
						c0.65,1.57,0.98,3.34,0.98,5.31c0,1.7-0.29,3.26-0.86,4.68s-1.41,2.65-2.5,3.7c-1.1,1.05-2.43,1.9-4,2.56
						c-1.57,0.66-3.35,1.09-5.34,1.29l12.75,16.6h-10l-12.07-16.48h-2.43v16.48h-8.26V1654H723.87z M714.61,1661.61v10.15h9.12
						c2.27,0,3.97-0.42,5.12-1.26c1.14-0.84,1.72-2.14,1.72-3.89c0-1.74-0.59-3-1.76-3.8c-1.17-0.8-2.87-1.2-5.07-1.2H714.61z"/>
					<path d="M777.56,1695.43H746.6V1654h30.72v7.58h-22.46v9.17h21.42v7.58h-21.42v9.53h22.7V1695.43z"/>
					<path d="M824.25,1695.43h-8.82l-3.61-9.65h-17.67l-3.61,9.65h-8.61l16.13-41.43h10.06L824.25,1695.43z M796.99,1678.18h11.98
						l-5.98-16.01L796.99,1678.18z"/>
					<path d="M875.3,1695.43h-8.26v-31.28l-10.24,27.28h-8.73l-10.24-27.05v31.04h-8.26V1654h12.1l10.77,27.96l10.74-27.96h12.1
						V1695.43z"/>
				</g>
			</g>
			<path class="st1" d="M263.72,1609.1h-61.16v-82.49h19.68v64.23h41.48V1609.1z"/>
			<path class="st1" d="M437.31,1609.1h-19.68v-82.49h19.68V1609.1z"/>
			<path class="st1" d="M637.95,1609.1H614.5l-30.52-82.49h20.92l21.45,62.22l21.57-62.22h20.51L637.95,1609.1z"/>
			<path class="st1" d="M879.36,1609.1h-63.17v-82.49h62.93v17.74h-43.25v14.26h40.72v17.68h-40.72v15.09h43.49V1609.1z"/>
			<path d="M132.88,1126.87c13.33,0,25.17,2.12,35.53,6.37c10.35,4.25,19.18,10.18,26.48,17.8l-28.33,27.85
				c-4.21-4.52-9.24-8.09-15.12-10.71c-5.87-2.62-12.69-3.93-20.47-3.93c-6.67,0-12.8,1.19-18.39,3.57
				c-5.59,2.38-10.43,5.73-14.52,10.06c-4.09,4.33-7.26,9.51-9.52,15.53c-2.26,6.03-3.39,12.66-3.39,19.88
				c0,8.02,1.23,15.12,3.69,21.3c2.46,6.19,5.79,11.41,10,15.65c4.2,4.25,9.08,7.48,14.64,9.7c5.55,2.22,11.43,3.33,17.61,3.33
				c11.9,0,21.33-2.54,28.27-7.62c6.94-5.08,11.56-12.58,13.86-22.5h-40.59v-30.71h79.99c0.31,2.22,0.53,4.34,0.65,6.37
				c0.12,2.02,0.18,4.07,0.18,6.13c0,13.33-2.2,25.23-6.61,35.71c-4.4,10.47-10.34,19.34-17.79,26.6
				c-7.46,7.26-16.07,12.8-25.83,16.6c-9.76,3.81-20,5.71-30.71,5.71c-12.38,0-23.94-2.07-34.7-6.19
				c-10.75-4.12-20.1-9.96-28.03-17.49c-7.93-7.54-14.18-16.6-18.74-27.2c-4.56-10.59-6.84-22.39-6.84-35.41
				c0-12.62,2.18-24.22,6.55-34.82c4.36-10.59,10.47-19.71,18.33-27.38c7.85-7.66,17.2-13.61,28.03-17.85
				C107.95,1128.99,119.87,1126.87,132.88,1126.87z"/>
			<path d="M362.72,1296.59H239.17v-166.63h39.75v129.73h83.79V1296.59z"/>
			<path d="M462.86,1126.87c12.85,0,24.65,2.16,35.41,6.49c10.75,4.33,20.01,10.34,27.79,18.03c7.78,7.7,13.83,16.82,18.15,27.37
				c4.32,10.55,6.49,22.06,6.49,34.52c0,12.46-2.16,23.96-6.49,34.52c-4.32,10.55-10.37,19.68-18.15,27.38
				c-7.78,7.7-17.04,13.71-27.79,18.03c-10.75,4.32-22.56,6.49-35.41,6.49c-12.86,0-24.66-2.16-35.41-6.49
				c-10.75-4.32-20.02-10.34-27.79-18.03c-7.78-7.7-13.83-16.82-18.15-27.38c-4.33-10.55-6.49-22.06-6.49-34.52
				c0-12.46,2.16-23.96,6.49-34.52c4.32-10.55,10.37-19.68,18.15-27.37c7.78-7.7,17.04-13.71,27.79-18.03
				C438.21,1129.03,450.01,1126.87,462.86,1126.87z M462.86,1164.96c-6.83,0-13.07,1.17-18.75,3.51
				c-5.67,2.34-10.55,5.65-14.64,9.94c-4.09,4.28-7.28,9.39-9.58,15.3c-2.3,5.91-3.45,12.44-3.45,19.58
				c0,7.14,1.15,13.67,3.45,19.58c2.3,5.91,5.49,11.01,9.58,15.29c4.09,4.29,8.96,7.6,14.64,9.94c5.67,2.34,11.92,3.51,18.75,3.51
				c6.74,0,12.97-1.17,18.69-3.51c5.71-2.34,10.61-5.66,14.7-9.94c4.09-4.28,7.28-9.38,9.58-15.29c2.3-5.91,3.45-12.44,3.45-19.58
				c0-7.14-1.15-13.67-3.45-19.58c-2.3-5.91-5.49-11.01-9.58-15.3c-4.09-4.28-8.99-7.6-14.7-9.94
				C475.84,1166.13,469.61,1164.96,462.86,1164.96z"/>
			<path d="M643.01,1129.96c21.19,0,37.15,4.01,47.91,12.02c10.75,8.02,16.13,19.72,16.13,35.11c0,4.13-0.58,7.99-1.73,11.6
				c-1.15,3.61-2.74,6.92-4.76,9.94c-2.02,3.02-4.44,5.67-7.26,7.97c-2.82,2.3-5.89,4.21-9.23,5.71c3.65,1.35,7.08,3.19,10.3,5.53
				c3.21,2.34,6.01,5.1,8.39,8.27c2.38,3.17,4.26,6.69,5.65,10.53c1.39,3.85,2.08,7.92,2.08,12.2c0,15.32-5.28,27.1-15.83,35.35
				c-10.55,8.25-26.38,12.38-47.49,12.38h-75.82v-166.63H643.01z M611.11,1163.41v32.85h30.95c3.57,0,6.8-0.28,9.7-0.83
				c2.9-0.56,5.38-1.49,7.44-2.8c2.06-1.31,3.65-3.02,4.76-5.12c1.11-2.1,1.67-4.7,1.67-7.79c0-3.01-0.56-5.57-1.67-7.68
				c-1.11-2.1-2.7-3.79-4.76-5.06c-2.06-1.27-4.54-2.18-7.44-2.74c-2.9-0.56-6.13-0.83-9.7-0.83H611.11z M611.11,1229.47v33.8h34.04
				c7.7,0,13.67-1.27,17.91-3.81c4.24-2.54,6.37-6.94,6.37-13.21c0-6.11-2.12-10.43-6.37-12.97c-4.25-2.54-10.22-3.81-17.91-3.81
				H611.11z"/>
			<path d="M893.32,1296.59h-42.37l-12.62-34.99h-66.18l-12.62,34.99H718l63.91-166.63h47.49L893.32,1296.59z M785.01,1225.66h40.47
				l-20.23-56.18L785.01,1225.66z"/>
			<path d="M1035.79,1296.59H912.24v-166.63h39.75v129.73h83.79V1296.59z"/>
			<path d="M271.36,1325.24c13.33,0,25.17,2.12,35.53,6.37c10.35,4.25,19.18,10.18,26.48,17.8l-28.33,27.85
				c-4.21-4.52-9.24-8.09-15.12-10.71c-5.87-2.62-12.69-3.93-20.47-3.93c-6.67,0-12.79,1.19-18.39,3.57
				c-5.59,2.38-10.43,5.73-14.52,10.06c-4.09,4.33-7.26,9.5-9.52,15.54c-2.26,6.03-3.39,12.65-3.39,19.87
				c0,8.02,1.23,15.12,3.69,21.31c2.46,6.19,5.79,11.4,10,15.65c4.2,4.25,9.08,7.48,14.64,9.7c5.55,2.22,11.43,3.33,17.61,3.33
				c11.9,0,21.33-2.54,28.27-7.61c6.94-5.08,11.56-12.58,13.87-22.5h-40.59v-30.71h79.98c0.32,2.22,0.53,4.34,0.65,6.37
				c0.12,2.02,0.18,4.07,0.18,6.13c0,13.33-2.2,25.23-6.61,35.7c-4.4,10.47-10.34,19.34-17.79,26.6
				c-7.46,7.26-16.07,12.8-25.83,16.6c-9.76,3.81-20,5.71-30.71,5.71c-12.38,0-23.94-2.06-34.7-6.19
				c-10.75-4.13-20.1-9.96-28.03-17.5c-7.94-7.54-14.18-16.6-18.75-27.2c-4.56-10.59-6.84-22.39-6.84-35.41
				c0-12.62,2.18-24.22,6.55-34.81c4.36-10.59,10.47-19.72,18.33-27.38c7.85-7.66,17.2-13.61,28.03-17.85
				C246.43,1327.36,258.35,1325.24,271.36,1325.24z"/>
			<path d="M462.86,1325.24c12.85,0,24.65,2.16,35.41,6.49c10.75,4.33,20.01,10.34,27.79,18.03c7.78,7.7,13.83,16.83,18.15,27.37
				c4.32,10.56,6.49,22.06,6.49,34.52c0,12.46-2.16,23.96-6.49,34.52c-4.32,10.55-10.37,19.68-18.15,27.37
				c-7.78,7.7-17.04,13.71-27.79,18.03c-10.75,4.32-22.56,6.49-35.41,6.49c-12.86,0-24.66-2.17-35.41-6.49
				c-10.75-4.32-20.02-10.34-27.79-18.03c-7.78-7.7-13.83-16.82-18.15-27.37c-4.33-10.55-6.49-22.06-6.49-34.52
				c0-12.46,2.16-23.96,6.49-34.52c4.32-10.55,10.37-19.68,18.15-27.37c7.78-7.69,17.04-13.71,27.79-18.03
				C438.21,1327.4,450.01,1325.24,462.86,1325.24z M462.86,1363.33c-6.83,0-13.07,1.17-18.75,3.51c-5.67,2.34-10.55,5.65-14.64,9.94
				c-4.09,4.29-7.28,9.39-9.58,15.3c-2.3,5.91-3.45,12.43-3.45,19.58c0,7.14,1.15,13.67,3.45,19.58c2.3,5.91,5.49,11.01,9.58,15.29
				c4.09,4.29,8.96,7.6,14.64,9.94c5.67,2.34,11.92,3.51,18.75,3.51c6.74,0,12.97-1.17,18.69-3.51c5.71-2.34,10.61-5.65,14.7-9.94
				c4.09-4.28,7.28-9.38,9.58-15.29c2.3-5.91,3.45-12.44,3.45-19.58c0-7.14-1.15-13.67-3.45-19.58c-2.3-5.91-5.49-11.01-9.58-15.3
				c-4.09-4.28-8.99-7.6-14.7-9.94C475.84,1364.5,469.61,1363.33,462.86,1363.33z"/>
			<path d="M731.1,1494.97h-42.37l-12.62-34.99h-66.18l-12.62,34.99h-41.54l63.91-166.63h47.49L731.1,1494.97z M622.79,1424.03
				h40.47l-20.23-56.18L622.79,1424.03z"/>
			<path d="M879.33,1494.97H755.79v-166.63h39.75v129.73h83.79V1494.97z"/>
			<g>
				<path class="st2" d="M585.81,822.8h0.04v32.64c42.37-17.6,72.25-59.4,72.25-108.06c0-48.68-29.9-90.49-72.29-108.07v154.11
					V822.8z"/>
				<path class="st2" d="M424.2,747.38c0,48.65,29.86,90.44,72.21,108.04V639.34C454.06,656.94,424.2,698.73,424.2,747.38z"/>
				<path class="st1" d="M585.81,548.08c-14.39-3.22-29.32-4.98-44.66-4.98c-15.37,0-30.33,1.76-44.74,5
					c-91.19,20.46-159.54,102.02-159.54,199.29c0,97.27,68.36,178.83,159.54,199.29v-91.25c-42.35-17.6-72.21-59.4-72.21-108.04
					c0-48.65,29.86-90.44,72.21-108.04c13.79-5.73,28.9-8.91,44.74-8.91c15.81,0,30.89,3.17,44.66,8.88
					c42.39,17.58,72.29,59.39,72.29,108.07c0,48.66-29.88,90.46-72.25,108.06v91.24c91.2-20.45,159.58-102.01,159.58-199.3
					C745.44,650.08,677.04,568.51,585.81,548.08z"/>
				<path class="st1" d="M496.73,855.55c-0.11-0.04-0.21-0.08-0.32-0.12v91.25c0.11,0.02,0.21,0.05,0.32,0.07V855.55z"/>
				<path d="M585.81,822.8v32.66c0.01-0.01,0.03-0.01,0.04-0.02V822.8H585.81z"/>
				<path d="M585.81,981v5.19v5.19v5.18v5.18v35.1h0.04v-90.17c-0.01,0-0.03,0.01-0.04,0.01V981z"/>
				<path d="M585.81,855.46v91.23c0.01,0,0.03,0,0.04-0.01v-91.24C585.84,855.44,585.83,855.45,585.81,855.46z"/>
				<g>
					<path d="M596.03,414.02v10.13v70.27v8.53v2.08c45.33,10.18,86.95,32.97,120.6,66.62c46.88,46.88,72.7,109.22,72.7,175.52
						s-25.82,128.64-72.7,175.52c-0.26,0.26-0.53,0.51-0.79,0.77l63.22,63.22c61.56-61.16,99.68-145.88,99.68-239.51
						C878.74,579.4,756.37,440.25,596.03,414.02z"/>
					<path d="M585.81,548.08v-34.73v-0.02v-5.19v-0.01v-5.19v-5.18v-5.18v-69.79v-5.15v-5.16v-10.3v-0.01v-0.01h-0.04l0.01-0.1
						c0-19.47,10.72-37.43,22.14-46.42c18.08-14.24,45.94-19.78,49.17-27.21c1.61-3.72,0.67-9.49-1-15.23
						c-1.16-4-14.65-48.21-25.35-83.93c-4.69-15.67-9.17-29.77-11.29-38.01c-1.91-7.44-3.16-12.72-3.44-14.59
						c-1.29-8.67,4.46-10.54,16.02-17.64c39.6-24.32,26.1-92.22-30.99-92.22c-27.44,0-43.82,19.18-49.81,37.56
						c-0.74,2.28-1.57,4.88-2.49,7.74l-7.5-2.14c0.29-1.14,0.52-2.29,0.64-3.45c0.58-5.64-3.38-11.03-9.04-12.66
						c-1.18-0.34-2.4-0.5-3.6-0.5c-4.58,0-9.05,2.36-11.19,6.36c-1.14,2.13-1.86,4.44-2.58,6.73c-0.71,2.3-1.27,4.63-1.66,7
						c-0.57,6.7,4.63,12.57,11.62,13.12c0.36,0.03,0.71,0.04,1.07,0.04c4.63,0,9.04-2.34,11.11-6.35c0.5-0.97,0.93-1.97,1.33-2.99
						l7.52,2.14c-3,9.54-6.61,21.2-10.59,34.2l-7.24-2.06c0.23-1.15,0.41-2.31,0.51-3.48c0.46-5.61-3.29-10.94-8.88-12.63
						c-1.24-0.37-2.52-0.55-3.79-0.55c-4.55,0-8.98,2.3-11.13,6.25c-1.15,2.13-1.86,4.44-2.58,6.73c-0.63,2.35-1.09,4.74-1.39,7.15
						c-0.57,6.7,4.63,12.57,11.62,13.12c0.34,0.02,0.69,0.04,1.03,0.04c4.62,0,8.91-2.42,11.14-6.35c0.46-0.97,0.87-1.96,1.27-2.96
						l7.2,2.05c-3.3,10.79-6.82,22.33-10.43,34.24l-7.15-2.04c0.27-1.11,0.5-2.22,0.62-3.34c0.62-5.69-3.32-11.15-9.04-12.78
						c-1.16-0.33-2.35-0.49-3.54-0.49c-4.62,0-9.11,2.42-11.26,6.46c-1.14,2.13-1.87,4.43-2.58,6.73c-0.71,2.3-1.27,4.63-1.67,7
						c-0.57,6.7,4.63,12.57,11.62,13.12c0.35,0.03,0.69,0.04,1.03,0.04c4.62,0,8.91-2.41,11.15-6.35c0.48-1.02,0.92-2.06,1.33-3.1
						l7.26,2.07c-3.42,11.3-6.9,22.83-10.35,34.27l-7.29-2.08c0.29-1.14,0.52-2.3,0.64-3.46c0.58-5.61-3.41-10.76-8.96-12.62
						c-1.14-0.28-2.3-0.42-3.45-0.42c-4.65,0-9.15,2.23-11.35,6.27c-1.16,2.13-1.92,4.44-2.66,6.73c-0.71,2.3-1.37,4.62-1.67,7
						c-0.84,6.67,4.63,12.57,11.62,13.12c0.35,0.03,0.69,0.04,1.04,0.04c4.62,0,8.91-2.42,11.14-6.35c0.46-0.99,0.89-2,1.29-3.02
						l7.44,2.12c-3.52,11.7-6.98,23.22-10.27,34.2l-7.4-2.11c0.26-1.12,0.5-2.25,0.69-3.38c0.21-5.66-3.39-11-9.04-12.63
						c-1.18-0.34-2.39-0.5-3.6-0.5c-4.58,0-9.05,2.36-11.2,6.36c-1.14,2.13-1.87,4.44-2.58,6.73c-0.71,2.3-1.27,4.63-1.67,7
						c-0.57,6.7,4.63,12.57,11.62,13.12c0.35,0.02,0.69,0.04,1.04,0.04c4.62,0,8.91-2.42,11.14-6.35c0.48-1.02,0.91-2.04,1.32-3.08
						l7.49,2.13c-3.76,12.56-7.25,24.27-10.3,34.52l-7.73-2.2c0.28-1.18,0.51-2.37,0.69-3.57c0.25-5.66-3.42-10.79-9-12.62
						c-1.14-0.28-2.31-0.42-3.47-0.42c-4.65,0-9.15,2.2-11.32,6.24c-1.15,2.13-1.86,4.46-2.58,6.77c-0.71,2.3-1.27,4.63-1.67,7
						c-0.57,6.7,4.63,12.57,11.62,13.12c0.34,0.03,0.69,0.04,1.03,0.04c4.62,0,8.91-2.42,11.14-6.35c0.45-0.96,0.85-1.93,1.24-2.91
						l7.86,2.24c-5.48,18.45-9.14,30.91-9.71,33.08c-1.85,7.03-1.29,9.29,1.94,15.48c2.97,5.69,11.93,14.02,19.38,26.38l-0.02,0
						c0.01,0,0.01,0,0.02,0c0.45,0.74,0.89,1.49,1.32,2.26v7.87v5.16v5.15v69.79v5.18v5.18v5.19v0.01v5.18v0.02v34.74
						c14.41-3.23,29.37-5,44.74-5C556.49,543.1,571.43,544.85,585.81,548.08z"/>
					<path d="M541.15,630.42c-15.84,0-30.95,3.18-44.74,8.91v352.04c-1.71-0.31-3.41-0.64-5.11-0.98c-1.71-0.35-3.41-0.71-5.11-1.09
						c-45.33-10.18-86.95-32.97-120.6-66.62c-46.88-46.88-72.7-109.22-72.7-175.52s25.82-128.64,72.7-175.52
						c33.65-33.66,75.27-56.44,120.6-66.62v-2.08v-8.53v-70.27v-10.13C325.85,440.25,203.49,579.4,203.49,747.16
						s122.37,306.91,282.71,333.15c1.7,0.28,3.4,0.54,5.11,0.79c1.7,0.25,3.4,0.51,5.11,0.74c1.7,0.22,3.4,0.43,5.11,0.63
						c1.7,0.2,3.4,0.38,5.11,0.56c11.34,1.16,22.84,1.76,34.48,1.76c15.16,0,30.07-1.02,44.7-2.95V639.31
						C572.05,633.6,556.97,630.42,541.15,630.42z"/>
				</g>
			</g>
		</g>
	</g>
	<g>
		<text transform="matrix(1 0 0 1 402.7378 1780.3766)"><tspan x="0" y="0" class="st3 st4">presented by</tspan><tspan x="-137.35" y="60.41" class="st3 st5">Global Citizen &amp; Teneo</tspan></text>
	</g>
</g>
</svg>
