<svg xmlns="http://www.w3.org/2000/svg" viewBox="0 0 743.46 186.69"><defs><style>.cls-1{fill:#fff;}</style></defs><title>Asset 1</title><g id="Layer_2" data-name="Layer 2"><g id="Layer_1-2" data-name="Layer 1"><path class="cls-1" d="M452.82,53.21c-11.77,0-21.22,3.17-31,8,.09-27.79.43-52,1.11-61.2L365.79,11v5.14l5.56.71c8,1.1,11,5.75,12,16.4,1.79,20.37,1.54,129.73,0,147.27,15.38,3.44,32,6.11,48.7,6.11,45.34,0,72.62-28,72.62-72.36C504.63,78.76,482.48,53.21,452.82,53.21Zm-19.89,124.4a63.13,63.13,0,0,1-9.74-.94c-.91-12.29-1.46-62.89-1.4-107.09a37.35,37.35,0,0,1,13.33-2.19c18.78,0,29.3,21.66,29.35,49C464.52,151.21,451.52,177.61,432.93,177.61Z"/><path class="cls-1" d="M150.23,4H0v7.23l8,1.08C19.45,14,23.85,21.11,25.2,37.29c2.58,31,2.22,86.41,0,113.08C23.85,166.55,19.45,173.64,8,175.32L0,176.4v7.23H96.54V176.4l-10.14-1.08c-11.46-1.67-15.86-8.76-17.21-24.94-.92-11-1.51-29.59-1.72-51.38l19.91.64c13.28.43,18.84,10.27,22,24.86h7.45V63.7h-7.45c-3.2,14.59-8.75,24.43-22,24.87l-20,.64c-.14-28.7.4-56.28,1.78-72.85H98.86c23.14,0,35.51,14.7,43.28,40.68l8.93-2.48Z"/><path class="cls-1" d="M199.05,51.77c42.7,0,63.92,28.94,63.92,67.11,0,37.26-23.95,67.8-66.65,67.8s-63.92-28.94-63.92-67.11C132.4,82.31,156.35,51.77,199.05,51.77Zm-2.22,8.28c-18.87,0-24.16,25.52-24.16,59.18,0,32.75,8.36,59.18,25.87,59.18,18.87,0,24.16-25.52,24.16-59.18C222.7,86.48,214.34,60.05,196.83,60.05Z"/><path class="cls-1" d="M515.11,120.4c0-35.31,22.26-68.56,66.29-68.56,35.82,0,52.9,26.56,53.09,61.29H554.6c-.88,31.51,15.08,54.65,45.61,54.65,13.43,0,20.69-3.34,28.8-9.54l3.75,4.49c-8.86,12.29-27.36,23.94-51.9,23.94C542.37,186.68,515.16,159.42,515.11,120.4Zm39.79-16.26,40.05-.85c.2-17.72-2.64-43.06-17-43.06S555.25,84.21,554.9,104.14Z"/><path class="cls-1" d="M735.72,58.74c-9.5-4.35-23.67-7-38.58-7-32.13,0-51.61,18.81-51.61,40.8,0,22.62,14.65,31.52,34.88,38.74,21.79,7.78,27.54,13.86,27.54,23.92,0,10.36-7.62,20.08-21.27,20.08-16.12,0-28.28-9.48-37.63-35.61l-6.54,1.7,1.15,37.36c10.63,4.3,28.8,7.93,45.12,7.93,34,0,54.7-16.61,54.7-43.57,0-18.12-8.83-28-31.15-36.68C688.2,97.09,679.84,91.21,679.84,80s7.43-19,17.75-19c15.49,0,26.07,9.61,33,32.16l6.55-1.7Z"/><path class="cls-1" d="M374.42,55.39c-14.41-8.62-40.68-4.55-54,26.06l.65-29.78-56.93,11v5.14l5.56.71c8,1.1,11,5.76,12,16.4,1.79,20.37,1.54,56.8,0,74.33-.94,10.63-4,15.3-12,16.39l-5.56.72v7.23h79.28V176.4l-10.34-.72c-8-1.09-11-5.76-12-16.39-1.42-16.1-1.74-48.13-.4-69,3.82-6.3,22.44-11.38,39.74.23Z"/></g></g></svg>