<?xml version="1.0" encoding="UTF-8" standalone="no"?>
<svg
   xmlns:dc="http://purl.org/dc/elements/1.1/"
   xmlns:cc="http://creativecommons.org/ns#"
   xmlns:rdf="http://www.w3.org/1999/02/22-rdf-syntax-ns#"
   xmlns:svg="http://www.w3.org/2000/svg"
   xmlns="http://www.w3.org/2000/svg"
   viewBox="70 290 1000 210"
   height="52.5"
   width="250"
   xml:space="preserve"
   id="svg2"
   version="1.1"><metadata
     id="metadata8"><rdf:RDF><cc:Work
         rdf:about=""><dc:format>image/svg+xml</dc:format><dc:type
           rdf:resource="http://purl.org/dc/dcmitype/StillImage" /></cc:Work></rdf:RDF></metadata><defs
     id="defs6"><clipPath
       id="clipPath18"
       clipPathUnits="userSpaceOnUse"><path
         id="path16"
         d="M 0,595.28 H 841.89 V 0 H 0 Z" /></clipPath></defs><g
     transform="matrix(1.3333333,0,0,-1.3333333,0,793.70667)"
     id="g10"><g
       id="g12"><g
         clip-path="url(#clipPath18)"
         id="g14"><g
           transform="translate(231.3154,324.2817)"
           id="g20"><path
             id="path22"
             style="fill:#ffffff;fill-opacity:1;fill-rule:evenodd;stroke:none"
             d="m 0,0 -9.192,-18.578 h -4.523 L -22.858,0 v -21.398 h -7.586 v 33.994 h 10.26 L -11.43,-6.08 -2.627,12.596 H 7.586 V -21.398 H 0 Z m 541.211,-17.605 c -2.95,-2.789 -6.411,-4.183 -10.383,-4.183 -3.972,0 -7.255,1.224 -9.849,3.672 -2.593,2.448 -3.89,5.731 -3.89,9.848 0,4.118 1.321,7.393 3.964,9.824 2.642,2.432 5.762,3.648 9.361,3.648 3.6,0 6.655,-1.087 9.168,-3.259 2.513,-2.172 3.769,-5.155 3.769,-8.948 v -3.891 h -19.064 c 0.227,-1.426 0.972,-2.594 2.236,-3.502 1.265,-0.907 2.692,-1.361 4.281,-1.361 2.561,0 4.669,0.859 6.322,2.577 z m -5.252,11.915 c -0.162,1.556 -0.746,2.756 -1.751,3.599 -1.005,0.843 -2.229,1.264 -3.672,1.264 -1.443,0 -2.764,-0.438 -3.964,-1.313 -1.199,-0.876 -1.896,-2.059 -2.091,-3.55 z m -32.34,-9.629 c 2.432,0 4.62,1.215 6.566,3.647 l 4.328,-4.863 c -3.371,-3.502 -7.02,-5.253 -10.943,-5.253 -3.923,0 -7.238,1.24 -9.945,3.721 -2.707,2.48 -4.061,5.722 -4.061,9.726 0,4.005 1.37,7.263 4.11,9.776 2.739,2.512 5.989,3.769 9.751,3.769 1.88,0 3.785,-0.39 5.714,-1.167 1.928,-0.779 3.624,-1.93 5.083,-3.454 l -3.794,-4.96 c -0.843,1.005 -1.872,1.783 -3.088,2.334 -1.216,0.551 -2.424,0.827 -3.624,0.827 -1.912,0 -3.558,-0.624 -4.936,-1.872 -1.378,-1.248 -2.067,-2.983 -2.067,-5.204 0,-2.221 0.689,-3.947 2.067,-5.18 1.378,-1.232 2.991,-1.847 4.839,-1.847 m -35.501,8.51 v -14.589 h -7.295 V 4.766 h 7.295 V 1.848 c 2.205,2.237 4.686,3.356 7.442,3.356 2.755,0 5.065,-0.973 6.929,-2.918 1.865,-1.946 2.797,-4.539 2.797,-7.782 v -15.902 h -7.295 v 14.784 c 0,4.02 -1.475,6.03 -4.426,6.03 -1.459,0 -2.731,-0.526 -3.818,-1.581 -1.086,-1.053 -1.629,-2.601 -1.629,-4.644 m -13.859,-10.796 c -2.95,-2.789 -6.411,-4.183 -10.383,-4.183 -3.972,0 -7.254,1.224 -9.849,3.672 -2.593,2.448 -3.89,5.731 -3.89,9.848 0,4.118 1.321,7.393 3.964,9.824 2.642,2.432 5.762,3.648 9.362,3.648 3.599,0 6.654,-1.087 9.167,-3.259 2.513,-2.172 3.769,-5.155 3.769,-8.948 v -3.891 h -19.064 c 0.227,-1.426 0.973,-2.594 2.237,-3.502 1.265,-0.907 2.691,-1.361 4.28,-1.361 2.561,0 4.669,0.859 6.322,2.577 z m -5.252,11.915 c -0.162,1.556 -0.746,2.756 -1.751,3.599 -1.005,0.843 -2.23,1.264 -3.672,1.264 -1.442,0 -2.764,-0.438 -3.963,-1.313 -1.2,-0.876 -1.897,-2.059 -2.092,-3.55 z m -23.488,-15.708 h -7.295 V 4.767 h 7.295 z m -6.688,29.495 c -0.826,0.827 -1.24,1.84 -1.24,3.04 0,1.199 0.414,2.213 1.24,3.039 0.827,0.827 1.84,1.241 3.04,1.241 1.199,0 2.213,-0.414 3.039,-1.241 0.827,-0.826 1.24,-1.84 1.24,-3.039 0,-1.2 -0.413,-2.213 -1.24,-3.04 -0.826,-0.826 -1.84,-1.24 -3.039,-1.24 -1.2,0 -2.213,0.414 -3.04,1.24 m -15.537,-23.416 c 2.433,0 4.621,1.215 6.566,3.647 l 4.328,-4.863 c -3.372,-3.502 -7.019,-5.253 -10.942,-5.253 -3.923,0 -7.238,1.24 -9.946,3.721 -2.707,2.48 -4.061,5.722 -4.061,9.726 0,4.005 1.37,7.263 4.11,9.776 2.74,2.512 5.99,3.769 9.751,3.769 1.88,0 3.786,-0.39 5.714,-1.167 1.929,-0.779 3.624,-1.93 5.082,-3.454 l -3.793,-4.96 c -0.843,1.005 -1.873,1.783 -3.088,2.334 -1.216,0.551 -2.424,0.827 -3.623,0.827 -1.913,0 -3.559,-0.624 -4.937,-1.872 -1.378,-1.248 -2.066,-2.983 -2.066,-5.204 0,-2.221 0.688,-3.947 2.066,-5.18 1.378,-1.232 2.991,-1.847 4.839,-1.847 M 372.22,6.711 c -1.265,0 -2.262,-0.3 -2.991,-0.899 -0.73,-0.601 -1.095,-1.395 -1.095,-2.384 0,-0.989 0.446,-1.775 1.338,-2.358 0.891,-0.584 2.95,-1.273 6.175,-2.067 3.227,-0.795 5.732,-1.986 7.514,-3.575 1.784,-1.588 2.676,-3.907 2.676,-6.954 0,-3.048 -1.144,-5.52 -3.429,-7.417 -2.286,-1.896 -5.293,-2.845 -9.021,-2.845 -5.382,0 -10.23,1.994 -14.542,5.982 l 4.523,5.544 c 3.664,-3.21 7.052,-4.814 10.164,-4.814 1.395,0 2.489,0.3 3.283,0.899 0.794,0.6 1.192,1.411 1.192,2.432 0,1.021 -0.422,1.832 -1.265,2.432 -0.843,0.6 -2.513,1.208 -5.009,1.823 -3.956,0.941 -6.849,2.165 -8.681,3.672 -1.831,1.508 -2.748,3.875 -2.748,7.101 0,3.225 1.159,5.714 3.477,7.465 2.319,1.751 5.212,2.626 8.682,2.626 2.269,0 4.539,-0.389 6.808,-1.167 2.27,-0.778 4.248,-1.881 5.933,-3.307 l -3.842,-5.545 c -2.95,2.238 -5.998,3.356 -9.142,3.356 M 324.755,-6.809 V -21.398 H 317.46 V 4.766 h 7.295 V 1.848 c 2.205,2.237 4.685,3.356 7.441,3.356 2.756,0 5.066,-0.973 6.93,-2.918 1.864,-1.946 2.797,-4.539 2.797,-7.782 v -15.902 h -7.296 v 14.784 c 0,4.02 -1.475,6.03 -4.425,6.03 -1.459,0 -2.732,-0.526 -3.818,-1.581 -1.086,-1.053 -1.629,-2.601 -1.629,-4.644 m -32.193,-1.507 c 0,-2.14 0.607,-3.883 1.823,-5.228 1.216,-1.346 2.772,-2.019 4.669,-2.019 1.896,0 3.453,0.673 4.669,2.019 1.215,1.345 1.823,3.088 1.823,5.228 0,2.139 -0.608,3.89 -1.823,5.252 -1.216,1.362 -2.773,2.043 -4.669,2.043 -1.897,0 -3.453,-0.681 -4.669,-2.043 -1.216,-1.362 -1.823,-3.113 -1.823,-5.252 m 20.328,0 c 0,-3.794 -1.314,-6.987 -3.94,-9.581 -2.626,-2.594 -5.925,-3.891 -9.896,-3.891 -3.972,0 -7.271,1.297 -9.897,3.891 -2.626,2.594 -3.939,5.787 -3.939,9.581 0,3.793 1.313,6.995 3.939,9.605 2.626,2.609 5.925,3.915 9.897,3.915 3.971,0 7.27,-1.306 9.896,-3.915 2.626,-2.61 3.94,-5.812 3.94,-9.605 m -32.243,-13.082 h -7.295 V 4.767 h 7.295 z m -6.686,29.495 c -0.827,0.827 -1.24,1.84 -1.24,3.04 0,1.199 0.413,2.213 1.24,3.039 0.826,0.827 1.84,1.241 3.039,1.241 1.2,0 2.213,-0.414 3.04,-1.241 0.826,-0.826 1.239,-1.84 1.239,-3.039 0,-1.2 -0.413,-2.213 -1.239,-3.04 -0.827,-0.826 -1.84,-1.24 -3.04,-1.24 -1.199,0 -2.213,0.414 -3.039,1.24 m -12.474,-8.584 v -11.72 c 0,-1.005 0.26,-1.791 0.779,-2.359 0.518,-0.567 1.134,-0.851 1.847,-0.851 1.363,0 2.513,0.616 3.453,1.848 l 2.724,-5.106 c -2.269,-2.075 -4.661,-3.113 -7.174,-3.113 -2.512,0 -4.636,0.827 -6.37,2.48 -1.734,1.654 -2.602,3.908 -2.602,6.761 v 12.06 h -3.064 v 5.253 h 3.064 v 7.83 h 7.343 v -7.83 h 6.323 v -5.253 z m -23.633,-14.832 c 2.431,0 4.62,1.215 6.565,3.647 l 4.328,-4.863 c -3.372,-3.502 -7.019,-5.253 -10.942,-5.253 -3.923,0 -7.239,1.24 -9.946,3.721 -2.707,2.48 -4.06,5.722 -4.06,9.726 0,4.005 1.369,7.263 4.109,9.776 2.739,2.512 5.989,3.769 9.751,3.769 1.88,0 3.785,-0.39 5.714,-1.167 1.929,-0.779 3.623,-1.93 5.082,-3.454 l -3.793,-4.96 c -0.843,1.005 -1.873,1.783 -3.089,2.334 -1.216,0.551 -2.423,0.827 -3.623,0.827 -1.912,0 -3.558,-0.624 -4.935,-1.872 -1.379,-1.248 -2.068,-2.983 -2.068,-5.204 0,-2.221 0.689,-3.947 2.068,-5.18 1.377,-1.232 2.99,-1.847 4.839,-1.847 m -19.113,-2.286 c -2.95,-2.789 -6.411,-4.183 -10.383,-4.183 -3.971,0 -7.254,1.224 -9.847,3.672 -2.594,2.448 -3.891,5.731 -3.891,9.848 0,4.118 1.321,7.393 3.963,9.824 2.643,2.432 5.764,3.648 9.362,3.648 3.599,0 6.655,-1.087 9.167,-3.259 2.513,-2.172 3.77,-5.155 3.77,-8.948 v -3.891 h -19.065 c 0.228,-1.426 0.973,-2.594 2.238,-3.502 1.264,-0.907 2.69,-1.361 4.279,-1.361 2.562,0 4.669,0.859 6.322,2.577 z m -5.252,11.915 c -0.162,1.556 -0.746,2.756 -1.751,3.599 -1.005,0.843 -2.228,1.264 -3.672,1.264 -1.442,0 -2.763,-0.438 -3.962,-1.313 -1.201,-0.876 -1.897,-2.059 -2.092,-3.55 z M 173.125,-6.809 V -21.398 H 165.83 V 4.766 h 7.295 V 1.848 c 2.205,2.237 4.685,3.356 7.44,3.356 2.756,0 5.067,-0.973 6.931,-2.918 1.864,-1.946 2.797,-4.539 2.797,-7.782 v -15.902 h -7.296 v 14.784 c 0,4.02 -1.475,6.03 -4.426,6.03 -1.459,0 -2.73,-0.526 -3.816,-1.581 -1.086,-1.053 -1.63,-2.601 -1.63,-4.644 m -30.249,0 v -14.589 h -7.295 V 4.766 h 7.295 V 1.848 c 2.205,2.237 4.686,3.356 7.441,3.356 2.756,0 5.067,-0.973 6.93,-2.918 1.865,-1.946 2.797,-4.539 2.797,-7.782 v -15.902 h -7.295 v 14.784 c 0,4.02 -1.475,6.03 -4.426,6.03 -1.459,0 -2.731,-0.526 -3.817,-1.581 -1.086,-1.053 -1.63,-2.601 -1.63,-4.644 m -32.193,-1.507 c 0,-2.14 0.608,-3.883 1.824,-5.228 1.216,-1.346 2.771,-2.019 4.668,-2.019 1.897,0 3.453,0.673 4.67,2.019 1.215,1.345 1.823,3.088 1.823,5.228 0,2.139 -0.608,3.89 -1.823,5.252 -1.217,1.362 -2.773,2.043 -4.67,2.043 -1.897,0 -3.452,-0.681 -4.668,-2.043 -1.216,-1.362 -1.824,-3.113 -1.824,-5.252 m 20.329,0 c 0,-3.794 -1.314,-6.987 -3.94,-9.581 -2.626,-2.594 -5.925,-3.891 -9.897,-3.891 -3.971,0 -7.271,1.297 -9.897,3.891 -2.626,2.594 -3.939,5.787 -3.939,9.581 0,3.793 1.313,6.995 3.939,9.605 2.626,2.609 5.926,3.915 9.897,3.915 3.972,0 7.271,-1.306 9.897,-3.915 2.626,-2.61 3.94,-5.812 3.94,-9.605 m -43.574,-6.372 c 3.728,0 6.776,1.476 9.143,4.426 l 4.863,-5.009 c -3.858,-4.344 -8.406,-6.517 -13.641,-6.517 -5.237,0 -9.549,1.654 -12.937,4.961 -3.388,3.307 -5.082,7.481 -5.082,12.523 0,5.041 1.727,9.248 5.18,12.62 3.452,3.372 7.676,5.058 12.668,5.058 5.577,0 10.246,-2.124 14.007,-6.371 l -4.718,-5.35 c -2.4,2.983 -5.382,4.474 -8.948,4.474 -2.854,0 -5.293,-0.932 -7.32,-2.796 -2.026,-1.864 -3.039,-4.377 -3.039,-7.538 0,-3.161 0.956,-5.698 2.869,-7.611 1.913,-1.913 4.231,-2.87 6.955,-2.87 M 44.642,6.03 V -21.398 H 37.056 V 6.03 h -9.63 v 6.566 H 54.271 V 6.03 Z m -29.519,6.566 h 7.587 v -33.994 h -7.587 z" /></g><g
           transform="translate(210.3936,279.1885)"
           id="g24"><path
             id="path26"
             style="fill:#ffffff;fill-opacity:1;fill-rule:evenodd;stroke:none"
             d="m 0,0 v -3.529 h -3.044 v -6.807 c 0,-1.383 0.026,-2.185 0.086,-2.414 0.06,-0.225 0.188,-0.414 0.399,-0.566 0.205,-0.145 0.454,-0.221 0.75,-0.221 0.416,0 1.01,0.141 1.792,0.426 l 0.373,-3.453 c -1.031,-0.444 -2.197,-0.665 -3.503,-0.665 -0.799,0 -1.517,0.135 -2.16,0.405 -0.641,0.269 -1.111,0.621 -1.408,1.047 -0.303,0.431 -0.507,1.009 -0.626,1.744 -0.092,0.517 -0.14,1.564 -0.14,3.146 v 7.358 h -2.04 V 0 h 2.04 v 3.336 l 4.437,2.623 0,-5.959 z m 430.418,-16.809 h -4.438 v 8.567 c 0,1.814 -0.096,2.986 -0.286,3.513 -0.194,0.536 -0.502,0.946 -0.933,1.243 -0.432,0.297 -0.95,0.443 -1.555,0.443 -0.777,0 -1.474,-0.211 -2.089,-0.633 -0.62,-0.42 -1.042,-0.982 -1.268,-1.674 -0.232,-0.695 -0.345,-1.98 -0.345,-3.857 v -7.602 h -4.438 V 0 h 4.114 v -2.467 c 1.473,1.885 3.325,2.824 5.565,2.824 0.982,0 1.883,-0.179 2.698,-0.529 0.821,-0.357 1.436,-0.805 1.852,-1.349 0.421,-0.551 0.712,-1.172 0.874,-1.868 0.168,-0.697 0.249,-1.689 0.249,-2.986 z m -36.105,8.61 c 0,1.478 0.361,2.91 1.089,4.291 0.73,1.388 1.76,2.441 3.093,3.17 1.334,0.728 2.818,1.095 4.465,1.095 2.542,0 4.62,-0.826 6.244,-2.478 1.625,-1.656 2.435,-3.74 2.435,-6.266 0,-2.549 -0.821,-4.658 -2.456,-6.332 -1.641,-1.674 -3.703,-2.51 -6.191,-2.51 -1.539,0 -3.007,0.35 -4.404,1.047 -1.394,0.696 -2.456,1.717 -3.186,3.067 -0.728,1.344 -1.089,2.984 -1.089,4.916 m 4.566,-0.237 c 0,-1.668 0.393,-2.947 1.183,-3.834 0.792,-0.888 1.764,-1.332 2.924,-1.332 1.156,0 2.127,0.444 2.91,1.332 0.783,0.887 1.176,2.176 1.176,3.866 0,1.646 -0.393,2.916 -1.176,3.8 -0.783,0.891 -1.754,1.333 -2.91,1.333 -1.16,0 -2.132,-0.442 -2.924,-1.333 -0.79,-0.884 -1.183,-2.164 -1.183,-3.832 M 386.351,6.381 h 4.437 V 2.268 h -4.437 z m 0,-6.381 h 4.437 v -16.809 h -4.437 z m -3.109,0 v -3.529 h -3.045 v -6.807 c 0,-1.383 0.028,-2.185 0.087,-2.414 0.059,-0.225 0.189,-0.414 0.4,-0.566 0.204,-0.145 0.453,-0.221 0.75,-0.221 0.416,0 1.008,0.141 1.792,0.426 l 0.372,-3.453 c -1.032,-0.444 -2.197,-0.665 -3.503,-0.665 -0.799,0 -1.517,0.135 -2.159,0.405 -0.643,0.269 -1.112,0.621 -1.409,1.047 -0.302,0.431 -0.507,1.009 -0.626,1.744 -0.091,0.517 -0.14,1.564 -0.14,3.146 v 7.358 H 373.72 V 0 h 2.041 v 3.336 l 4.436,2.623 V 0 Z m -22.385,-5.182 -4.015,0.713 c 0.453,1.641 1.235,2.856 2.343,3.643 1.105,0.789 2.752,1.183 4.932,1.183 1.982,0 3.46,-0.232 4.432,-0.703 0.967,-0.468 1.651,-1.062 2.046,-1.785 0.394,-0.724 0.593,-2.047 0.593,-3.978 l -0.064,-5.182 c 0,-1.475 0.07,-2.564 0.21,-3.266 0.141,-0.703 0.405,-1.453 0.794,-2.252 h -4.404 c -0.114,0.293 -0.26,0.725 -0.427,1.297 -0.07,0.264 -0.124,0.436 -0.157,0.518 -0.755,-0.744 -1.565,-1.301 -2.428,-1.674 -0.864,-0.373 -1.781,-0.561 -2.759,-0.561 -1.722,0 -3.082,0.469 -4.075,1.409 -0.993,0.933 -1.49,2.121 -1.49,3.556 0,0.946 0.227,1.793 0.68,2.537 0.453,0.741 1.085,1.313 1.906,1.706 0.814,0.394 1.992,0.74 3.53,1.037 2.072,0.388 3.514,0.755 4.312,1.089 v 0.45 c 0,0.863 -0.211,1.478 -0.631,1.851 -0.426,0.367 -1.225,0.551 -2.397,0.551 -0.793,0 -1.409,-0.158 -1.851,-0.477 -0.448,-0.312 -0.804,-0.869 -1.08,-1.662 m 5.959,-3.593 c -0.567,-0.19 -1.468,-0.416 -2.704,-0.682 -1.23,-0.264 -2.041,-0.523 -2.418,-0.772 -0.578,-0.416 -0.869,-0.933 -0.869,-1.564 0,-0.627 0.232,-1.16 0.696,-1.615 0.464,-0.453 1.052,-0.68 1.771,-0.68 0.799,0 1.565,0.266 2.294,0.789 0.534,0.404 0.891,0.891 1.058,1.473 0.113,0.379 0.172,1.101 0.172,2.164 z M 344.162,-16.809 337.388,0 h 4.664 l 3.163,-8.576 0.917,-2.867 c 0.243,0.728 0.399,1.209 0.459,1.441 0.151,0.475 0.307,0.951 0.48,1.426 L 350.277,0 h 4.568 l -6.678,-16.809 z m -25.439,8.61 c 0,1.478 0.362,2.91 1.09,4.291 0.729,1.388 1.76,2.441 3.093,3.17 1.333,0.728 2.818,1.095 4.464,1.095 2.542,0 4.62,-0.826 6.245,-2.478 1.625,-1.656 2.435,-3.74 2.435,-6.266 0,-2.549 -0.821,-4.658 -2.456,-6.332 -1.641,-1.674 -3.703,-2.51 -6.192,-2.51 -1.538,0 -3.006,0.35 -4.404,1.047 -1.393,0.696 -2.456,1.717 -3.185,3.067 -0.728,1.344 -1.09,2.984 -1.09,4.916 m 4.566,-0.237 c 0,-1.668 0.395,-2.947 1.183,-3.834 0.793,-0.888 1.764,-1.332 2.925,-1.332 1.155,0 2.126,0.444 2.91,1.332 0.782,0.887 1.176,2.176 1.176,3.866 0,1.646 -0.394,2.916 -1.176,3.8 -0.784,0.891 -1.755,1.333 -2.91,1.333 -1.161,0 -2.132,-0.442 -2.925,-1.333 -0.788,-0.884 -1.183,-2.164 -1.183,-3.832 m -8.025,-8.373 h -4.438 v 8.567 c 0,1.814 -0.097,2.986 -0.286,3.513 -0.194,0.536 -0.502,0.946 -0.934,1.243 -0.431,0.297 -0.95,0.443 -1.554,0.443 -0.778,0 -1.474,-0.211 -2.089,-0.633 -0.62,-0.42 -1.042,-0.982 -1.269,-1.674 -0.231,-0.695 -0.345,-1.98 -0.345,-3.857 v -7.602 h -4.437 V 0 h 4.113 v -2.467 c 1.474,1.885 3.325,2.824 5.566,2.824 0.981,0 1.883,-0.179 2.698,-0.529 0.82,-0.357 1.436,-0.805 1.852,-1.349 0.421,-0.551 0.712,-1.172 0.874,-1.868 0.168,-0.697 0.249,-1.689 0.249,-2.986 z m -19.784,0 h -4.436 v 8.567 c 0,1.814 -0.098,2.986 -0.286,3.513 -0.195,0.536 -0.502,0.946 -0.934,1.243 -0.432,0.297 -0.95,0.443 -1.554,0.443 -0.778,0 -1.474,-0.211 -2.089,-0.633 -0.621,-0.42 -1.042,-0.982 -1.269,-1.674 -0.232,-0.695 -0.346,-1.98 -0.346,-3.857 v -7.602 H 280.13 V 0 h 4.112 v -2.467 c 1.475,1.885 3.325,2.824 5.566,2.824 0.982,0 1.883,-0.179 2.699,-0.529 0.82,-0.357 1.435,-0.805 1.851,-1.349 0.421,-0.551 0.712,-1.172 0.874,-1.868 0.167,-0.697 0.248,-1.689 0.248,-2.986 z m -24.284,23.19 h 4.437 V 2.268 h -4.437 z m 0,-6.381 h 4.437 v -16.809 h -4.437 z m -21.725,0 h 2.461 v 1.27 c 0,1.414 0.151,2.47 0.454,3.168 0.302,0.701 0.857,1.267 1.668,1.705 0.814,0.437 1.84,0.658 3.081,0.658 1.268,0 2.515,-0.188 3.735,-0.567 l -0.566,-3.088 c -0.724,0.168 -1.42,0.254 -2.089,0.254 -0.658,0 -1.128,-0.15 -1.414,-0.453 -0.286,-0.302 -0.433,-0.884 -0.433,-1.748 V 0 h 3.336 v -3.498 h -3.336 v -13.311 h -4.436 v 13.311 h -2.461 z m -18.876,-8.199 c 0,1.478 0.362,2.91 1.091,4.291 0.728,1.388 1.759,2.441 3.092,3.17 1.333,0.728 2.818,1.095 4.464,1.095 2.542,0 4.62,-0.826 6.245,-2.478 1.625,-1.656 2.435,-3.74 2.435,-6.266 0,-2.549 -0.82,-4.658 -2.456,-6.332 -1.641,-1.674 -3.703,-2.51 -6.192,-2.51 -1.538,0 -3.006,0.35 -4.404,1.047 -1.392,0.696 -2.456,1.717 -3.184,3.067 -0.729,1.344 -1.091,2.984 -1.091,4.916 m 4.566,-0.237 c 0,-1.668 0.395,-2.947 1.183,-3.834 0.793,-0.888 1.764,-1.332 2.925,-1.332 1.155,0 2.127,0.444 2.91,1.332 0.782,0.887 1.176,2.176 1.176,3.866 0,1.646 -0.394,2.916 -1.176,3.8 -0.783,0.891 -1.755,1.333 -2.91,1.333 -1.161,0 -2.132,-0.442 -2.925,-1.333 -0.788,-0.884 -1.183,-2.164 -1.183,-3.832 M 202.483,0 h 4.729 L 211.244,-11.924 215.179,0 h 4.599 l -5.926,-16.176 -1.07,-2.92 c -0.393,-0.978 -0.766,-1.722 -1.122,-2.24 -0.351,-0.514 -0.761,-0.934 -1.22,-1.254 -0.459,-0.322 -1.026,-0.57 -1.701,-0.75 -0.669,-0.178 -1.429,-0.269 -2.277,-0.269 -0.854,0 -1.695,0.091 -2.522,0.269 l -0.388,3.467 c 0.697,-0.137 1.328,-0.205 1.889,-0.205 1.037,0 1.803,0.301 2.3,0.912 0.496,0.609 0.879,1.387 1.145,2.326 z m -18.065,-17.877 5.085,-0.615 c 0.086,-0.6 0.279,-1.01 0.582,-1.237 0.427,-0.318 1.091,-0.48 1.998,-0.48 1.16,0 2.029,0.174 2.611,0.523 0.389,0.233 0.686,0.606 0.886,1.123 0.135,0.368 0.205,1.053 0.205,2.042 l 0.022,2.455 c -1.339,-1.83 -3.023,-2.743 -5.052,-2.743 -2.257,0 -4.049,0.955 -5.365,2.862 -1.037,1.506 -1.555,3.384 -1.555,5.625 0,2.816 0.68,4.965 2.035,6.449 1.355,1.484 3.044,2.23 5.063,2.23 2.078,0 3.795,-0.912 5.144,-2.736 V 0 h 4.145 v -15.07 c 0,-1.981 -0.162,-3.465 -0.491,-4.442 -0.324,-0.982 -0.783,-1.75 -1.377,-2.31 -0.587,-0.557 -1.376,-0.998 -2.364,-1.313 -0.987,-0.318 -2.234,-0.474 -3.74,-0.474 -2.851,0 -4.869,0.492 -6.062,1.468 -1.193,0.983 -1.787,2.219 -1.787,3.725 0,0.145 0.006,0.328 0.017,0.539 m 3.983,9.813 c 0,-1.782 0.346,-3.082 1.032,-3.909 0.69,-0.824 1.543,-1.24 2.552,-1.24 1.08,0 1.997,0.426 2.743,1.274 0.75,0.847 1.122,2.099 1.122,3.761 0,1.739 -0.357,3.03 -1.074,3.871 -0.713,0.842 -1.619,1.264 -2.715,1.264 -1.064,0 -1.938,-0.416 -2.628,-1.242 -0.686,-0.826 -1.032,-2.084 -1.032,-3.779 m -24.38,-0.135 c 0,1.478 0.361,2.91 1.089,4.291 0.729,1.388 1.76,2.441 3.093,3.17 1.333,0.728 2.818,1.095 4.464,1.095 2.543,0 4.621,-0.826 6.245,-2.478 1.625,-1.656 2.435,-3.74 2.435,-6.266 0,-2.549 -0.821,-4.658 -2.456,-6.332 -1.641,-1.674 -3.703,-2.51 -6.192,-2.51 -1.538,0 -3.007,0.35 -4.404,1.047 -1.393,0.696 -2.456,1.717 -3.185,3.067 -0.728,1.344 -1.089,2.984 -1.089,4.916 m 4.566,-0.237 c 0,-1.668 0.393,-2.947 1.182,-3.834 0.793,-0.888 1.764,-1.332 2.925,-1.332 1.155,0 2.127,0.444 2.91,1.332 0.782,0.887 1.176,2.176 1.176,3.866 0,1.646 -0.394,2.916 -1.176,3.8 -0.783,0.891 -1.755,1.333 -2.91,1.333 -1.161,0 -2.132,-0.442 -2.925,-1.333 -0.789,-0.884 -1.182,-2.164 -1.182,-3.832 M 156.058,6.381 h 4.438 v -23.189 h -4.438 z m -20.819,-14.58 c 0,1.478 0.362,2.91 1.09,4.291 0.73,1.388 1.76,2.441 3.094,3.17 1.333,0.728 2.817,1.095 4.464,1.095 2.542,0 4.62,-0.826 6.245,-2.478 1.625,-1.656 2.433,-3.74 2.433,-6.266 0,-2.549 -0.82,-4.658 -2.455,-6.332 -1.64,-1.674 -3.703,-2.51 -6.191,-2.51 -1.539,0 -3.006,0.35 -4.404,1.047 -1.394,0.696 -2.456,1.717 -3.186,3.067 -0.728,1.344 -1.09,2.984 -1.09,4.916 m 4.567,-0.237 c 0,-1.668 0.394,-2.947 1.182,-3.834 0.794,-0.888 1.765,-1.332 2.925,-1.332 1.156,0 2.127,0.444 2.91,1.332 0.782,0.887 1.176,2.176 1.176,3.866 0,1.646 -0.394,2.916 -1.176,3.8 -0.783,0.891 -1.754,1.333 -2.91,1.333 -1.16,0 -2.131,-0.442 -2.925,-1.333 -0.788,-0.884 -1.182,-2.164 -1.182,-3.832 m -8.027,-8.373 h -4.436 v 8.567 c 0,1.814 -0.098,2.986 -0.286,3.513 -0.195,0.536 -0.502,0.946 -0.934,1.243 -0.433,0.297 -0.95,0.443 -1.555,0.443 -0.777,0 -1.473,-0.211 -2.089,-0.633 -0.621,-0.42 -1.041,-0.982 -1.268,-1.674 -0.232,-0.695 -0.346,-1.98 -0.346,-3.857 v -7.602 h -4.436 V 0 h 4.112 v -2.467 c 1.474,1.885 3.325,2.824 5.565,2.824 0.983,0 1.884,-0.179 2.699,-0.529 0.821,-0.357 1.436,-0.805 1.851,-1.349 0.422,-0.551 0.713,-1.172 0.875,-1.868 0.167,-0.697 0.248,-1.689 0.248,-2.986 z m -30.696,23.19 v -8.594 c 1.441,1.711 3.168,2.57 5.171,2.57 1.031,0 1.959,-0.189 2.785,-0.566 0.826,-0.385 1.446,-0.865 1.867,-1.459 0.421,-0.588 0.708,-1.24 0.859,-1.959 0.157,-0.717 0.232,-1.83 0.232,-3.336 v -9.846 h -4.437 v 8.864 c 0,1.759 -0.086,2.877 -0.253,3.351 -0.173,0.477 -0.476,0.854 -0.908,1.129 -0.431,0.281 -0.971,0.422 -1.624,0.422 -0.745,0 -1.409,-0.18 -1.998,-0.541 -0.588,-0.355 -1.014,-0.895 -1.284,-1.619 -0.275,-0.719 -0.41,-1.787 -0.41,-3.195 v -8.411 H 96.646 V 6.381 Z M 93.337,-4.986 88.965,-5.764 c -0.146,0.869 -0.481,1.522 -1.004,1.965 -0.523,0.436 -1.198,0.658 -2.029,0.658 -1.107,0 -1.993,-0.382 -2.651,-1.15 -0.659,-0.766 -0.988,-2.045 -0.988,-3.844 0,-1.996 0.335,-3.404 1.005,-4.23 0.669,-0.826 1.564,-1.237 2.687,-1.237 0.842,0 1.534,0.243 2.068,0.723 0.54,0.481 0.918,1.307 1.138,2.484 l 4.372,-0.746 c -0.453,-2.007 -1.322,-3.523 -2.606,-4.55 -1.285,-1.026 -3.007,-1.538 -5.171,-1.538 -2.451,0 -4.41,0.778 -5.867,2.327 -1.463,1.554 -2.191,3.703 -2.191,6.449 0,2.781 0.733,4.939 2.196,6.488 1.463,1.549 3.443,2.322 5.943,2.322 2.04,0 3.664,-0.443 4.874,-1.322 1.203,-0.881 2.067,-2.219 2.596,-4.021 m -22.935,-6.51 4.437,-0.746 c -0.567,-1.623 -1.468,-2.86 -2.693,-3.713 -1.231,-0.848 -2.769,-1.274 -4.61,-1.274 -2.92,0 -5.085,0.956 -6.482,2.866 -1.107,1.533 -1.663,3.467 -1.663,5.802 0,2.786 0.729,4.971 2.18,6.547 1.452,1.582 3.293,2.371 5.517,2.371 2.494,0 4.464,-0.826 5.91,-2.478 1.441,-1.652 2.133,-4.184 2.068,-7.594 H 63.957 c 0.033,-1.318 0.389,-2.344 1.074,-3.078 0.681,-0.732 1.533,-1.1 2.548,-1.1 0.696,0 1.279,0.188 1.749,0.567 0.475,0.377 0.831,0.988 1.074,1.83 m 0.259,4.502 c -0.032,1.289 -0.361,2.271 -0.993,2.941 -0.631,0.674 -1.397,1.01 -2.305,1.01 -0.966,0 -1.764,-0.357 -2.396,-1.064 -0.632,-0.707 -0.94,-1.674 -0.929,-2.887 z M 57.577,0 v -3.529 h -3.044 v -6.807 c 0,-1.383 0.027,-2.185 0.086,-2.414 0.06,-0.225 0.19,-0.414 0.4,-0.566 0.205,-0.145 0.453,-0.221 0.751,-0.221 0.415,0 1.008,0.141 1.791,0.426 l 0.373,-3.453 c -1.032,-0.444 -2.198,-0.665 -3.503,-0.665 -0.799,0 -1.518,0.135 -2.16,0.405 -0.642,0.269 -1.112,0.621 -1.409,1.047 -0.301,0.431 -0.507,1.009 -0.626,1.744 -0.091,0.517 -0.14,1.564 -0.14,3.146 v 7.358 h -2.04 V 0 h 2.04 v 3.336 l 4.437,2.623 V 0 Z m -24.97,-11.496 4.437,-0.746 c -0.566,-1.623 -1.468,-2.86 -2.693,-3.713 -1.231,-0.848 -2.769,-1.274 -4.61,-1.274 -2.92,0 -5.085,0.956 -6.482,2.866 -1.107,1.533 -1.663,3.467 -1.663,5.802 0,2.786 0.729,4.971 2.18,6.547 1.453,1.582 3.293,2.371 5.517,2.371 2.494,0 4.464,-0.826 5.91,-2.478 1.442,-1.652 2.133,-4.184 2.068,-7.594 H 26.162 c 0.033,-1.318 0.389,-2.344 1.074,-3.078 0.681,-0.732 1.534,-1.1 2.548,-1.1 0.696,0 1.279,0.188 1.749,0.567 0.475,0.377 0.831,0.988 1.074,1.83 m 0.259,4.502 c -0.032,1.289 -0.361,2.271 -0.993,2.941 -0.631,0.674 -1.397,1.01 -2.305,1.01 -0.965,0 -1.764,-0.357 -2.396,-1.064 -0.632,-0.707 -0.94,-1.674 -0.929,-2.887 z M 7.481,6.381 v -8.594 c 1.441,1.711 3.168,2.57 5.171,2.57 1.032,0 1.959,-0.189 2.786,-0.566 0.826,-0.385 1.446,-0.865 1.867,-1.459 0.421,-0.588 0.708,-1.24 0.858,-1.959 0.156,-0.717 0.233,-1.83 0.233,-3.336 v -9.846 h -4.438 v 8.864 c 0,1.759 -0.086,2.877 -0.253,3.351 -0.173,0.477 -0.476,0.854 -0.907,1.129 -0.432,0.281 -0.972,0.422 -1.625,0.422 -0.744,0 -1.408,-0.18 -1.997,-0.541 C 8.588,-3.939 8.161,-4.479 7.892,-5.203 7.616,-5.922 7.481,-6.99 7.481,-8.398 v -8.411 H 3.044 v 23.19 z" /></g><g
           transform="translate(98.5322,323.7817)"
           id="g28"><path
             id="path30"
             style="fill:#ffffff;fill-opacity:1;fill-rule:evenodd;stroke:none"
             d="m 0,0 v -9.039 -3.158 -10.071 c 0,-1.107 0.905,-2.013 2.013,-2.013 1.107,0 2.013,0.906 2.013,2.013 v 7.891 2.18 10.682 c 0,0.307 0.251,0.559 0.559,0.559 0.308,0 0.56,-0.252 0.56,-0.559 v -10.682 -2.18 -7.891 c 0,-1.107 0.906,-2.013 2.013,-2.013 1.107,0 2.013,0.906 2.013,2.013 v 10.071 3.158 13.703 h 0.033 v 8.388 c 0,0.308 0.252,0.559 0.56,0.559 0.307,0 0.559,-0.251 0.559,-0.559 V 4.682 0.19 -1.443 c 0,-0.861 0.704,-1.565 1.566,-1.565 0.861,0 1.566,0.704 1.566,1.565 v 9.597 0.693 7.203 c 0,1.919 -1.571,3.489 -3.49,3.489 H -0.728 c -1.918,0 -3.489,-1.57 -3.489,-3.489 V 8.847 8.154 -1.443 c 0,-0.861 0.705,-1.565 1.566,-1.565 0.861,0 1.566,0.704 1.566,1.565 v 1.633 4.492 8.37 c 0,0.308 0.252,0.559 0.56,0.559 0.307,0 0.558,-0.251 0.558,-0.559 V 0.19 C 0.033,0.124 0.021,0.06 0,0 m 4.619,28.403 c 2.169,0 3.929,-1.759 3.929,-3.928 0,-2.17 -1.76,-3.929 -3.929,-3.929 -2.17,0 -3.929,1.759 -3.929,3.929 0,2.169 1.759,3.928 3.929,3.928" /></g><g
           transform="translate(145.9688,320.7349)"
           id="g32"><path
             id="path34"
             style="fill:#ffffff;fill-opacity:1;fill-rule:evenodd;stroke:none"
             d="m 0,0 v -1.112 c 0.973,0.861 2.248,1.385 3.642,1.385 h 4.212 c -1.985,0.999 -3.348,3.055 -3.348,5.43 0,3.353 2.72,6.073 6.074,6.073 0.47,0 0.927,-0.054 1.365,-0.154 v 5.316 c 0,0.399 0.326,0.727 0.726,0.727 0.399,0 0.725,-0.328 0.725,-0.727 v -5.854 c 1.936,-1.016 3.257,-3.044 3.257,-5.381 0,-2.338 -1.321,-4.367 -3.257,-5.382 V 0.273 h 4.065 v 10.309 0.899 9.348 c 0,2.49 -2.038,4.528 -4.528,4.528 H -0.943 c -2.491,0 -4.529,-2.038 -4.529,-4.528 V 11.481 10.582 -1.872 c 0,-1.117 0.914,-2.032 2.033,-2.032 1.117,0 2.032,0.915 2.032,2.032 v 2.119 5.83 10.861 c 0,0.399 0.326,0.727 0.725,0.727 0.399,0 0.726,-0.328 0.726,-0.727 V 0.247 C 0.044,0.161 0.028,0.077 0,0 m 0.98,-30.933 c 0.448,-0.361 1.016,-0.578 1.633,-0.578 0.353,0 0.69,0.072 0.997,0.199 v 1.662 c -0.545,-0.779 -1.447,-1.289 -2.464,-1.289 -0.056,0 -0.111,0.002 -0.166,0.006 m 5.014,67.792 c 2.816,0 5.099,-2.282 5.099,-5.097 0,-2.816 -2.283,-5.099 -5.099,-5.099 -2.815,0 -5.098,2.283 -5.098,5.099 0,2.815 2.283,5.097 5.098,5.097" /></g><g
           transform="translate(118.1738,353.3994)"
           id="g36"><path
             id="path38"
             style="fill:#ffffff;fill-opacity:1;fill-rule:nonzero;stroke:none"
             d="M 0,0 C 10.308,1.814 20.092,2.318 28.299,1.694 28.051,1.17 27.875,0.607 27.785,0.015 19.8,0.584 10.307,0.073 0.295,-1.688 c -0.996,-0.176 -1.989,-0.363 -2.98,-0.56 -2.602,-0.519 -5.131,-1.104 -7.57,-1.746 -0.138,0.576 -0.378,1.112 -0.698,1.588 2.554,0.679 5.204,1.295 7.933,1.84 C -2.031,-0.369 -1.024,-0.18 0,0 m -19.608,-6.884 c -5.009,-1.801 -9.419,-3.838 -13.032,-5.998 -7.053,-4.218 -11.009,-8.828 -10.289,-12.921 l -0.002,-10e-4 0.024,-0.12 h 10e-4 c 0.009,-0.04 0.018,-0.081 0.027,-0.122 -0.532,-0.359 -1.004,-0.801 -1.397,-1.306 -0.132,0.356 -0.237,0.721 -0.311,1.093 v 0.01 l -0.026,0.141 -0.004,0.01 c -0.857,4.866 3.416,10.089 11.099,14.683 3.767,2.252 8.37,4.372 13.592,6.234 0.004,-0.599 0.116,-1.173 0.318,-1.703 m -14.196,-26.353 c 1.905,-0.623 4.061,-1.14 6.43,-1.543 5.968,-1.015 13.243,-1.281 21.211,-0.696 -0.067,-0.421 -0.104,-0.854 -0.104,-1.295 0,-0.144 0.005,-0.287 0.012,-0.429 -8.023,-0.573 -15.359,-0.296 -21.4,0.731 -2.572,0.437 -4.914,1.014 -6.986,1.722 0.347,0.457 0.63,0.965 0.837,1.51 m 43.029,-0.159 0.504,0.099 c 8.513,1.697 16.233,4.1 22.597,6.887 -0.015,-0.182 -0.025,-0.366 -0.025,-0.552 0,-0.434 0.046,-0.857 0.133,-1.265 -6.37,-2.732 -13.999,-5.083 -22.37,-6.751 l -0.292,-0.058 c -0.125,0.571 -0.309,1.12 -0.547,1.64 m 32.088,11.75 c 6.027,3.933 9.324,8.138 8.661,11.904 l 0.002,0.001 -0.023,0.12 H 49.95 c -0.667,3.348 -4.392,5.954 -10.18,7.648 0.061,0.347 0.093,0.705 0.093,1.07 0,0.232 -0.013,0.461 -0.039,0.686 6.659,-1.89 10.993,-4.981 11.808,-9.069 v -0.01 l 0.026,-0.141 0.004,-0.01 c 0.772,-4.383 -2.619,-9.056 -8.917,-13.298 -0.418,0.433 -0.9,0.805 -1.432,1.099" /></g><g
           transform="translate(117.5684,359.6099)"
           id="g40"><path
             id="path42"
             style="fill:#ffffff;fill-opacity:1;fill-rule:nonzero;stroke:none"
             d="m 0,0 h 0.001 c 0.163,0 0.326,-0.001 0.488,-0.003 0.163,-0.002 0.325,-0.005 0.488,-0.01 h 0.001 c 0.162,-0.004 0.324,-0.009 0.486,-0.015 0.162,-0.006 0.323,-0.014 0.484,-0.022 0.161,-0.008 0.323,-0.017 0.484,-0.028 0.16,-0.01 0.321,-0.021 0.481,-0.033 0.16,-0.013 0.32,-0.026 0.48,-0.04 0.16,-0.015 0.319,-0.03 0.478,-0.046 C 4.03,-0.213 4.188,-0.231 4.348,-0.249 4.507,-0.268 4.664,-0.287 4.822,-0.307 4.98,-0.327 5.138,-0.348 5.296,-0.37 5.453,-0.393 5.61,-0.416 5.767,-0.44 5.924,-0.464 6.08,-0.489 6.236,-0.515 6.393,-0.541 6.548,-0.568 6.704,-0.596 6.859,-0.625 7.015,-0.653 7.169,-0.683 H 7.17 c 0.154,-0.03 0.309,-0.061 0.463,-0.092 H 7.634 C 7.787,-0.807 7.941,-0.84 8.095,-0.874 8.248,-0.907 8.401,-0.942 8.555,-0.977 8.707,-1.013 8.859,-1.049 9.012,-1.086 9.164,-1.124 9.315,-1.162 9.467,-1.201 H 9.468 C 9.619,-1.241 9.77,-1.28 9.92,-1.322 h 10e-4 c 0.15,-0.041 0.301,-0.083 0.451,-0.126 0.149,-0.043 0.299,-0.086 0.448,-0.131 0.15,-0.044 0.299,-0.09 0.447,-0.137 h 0.001 c 0.148,-0.046 0.295,-0.093 0.443,-0.141 h 10e-4 c 0.147,-0.048 0.294,-0.098 0.441,-0.148 0.148,-0.05 0.293,-0.1 0.44,-0.152 0.146,-0.052 0.292,-0.105 0.437,-0.158 0.146,-0.054 0.29,-0.108 0.435,-0.163 0.144,-0.055 0.288,-0.111 0.431,-0.168 h 10e-4 c 0.144,-0.057 0.287,-0.115 0.429,-0.173 0.143,-0.059 0.285,-0.119 0.427,-0.179 h 10e-4 c 0.142,-0.06 0.283,-0.121 0.424,-0.183 h 10e-4 c 0.14,-0.062 0.281,-0.125 0.421,-0.189 h 0.001 c 0.139,-0.063 0.279,-0.128 0.418,-0.193 0.139,-0.065 0.278,-0.131 0.417,-0.198 0.138,-0.067 0.276,-0.135 0.413,-0.203 0.137,-0.069 0.274,-0.139 0.411,-0.208 0.136,-0.071 0.272,-0.141 0.408,-0.213 0.136,-0.072 0.27,-0.145 0.404,-0.218 h 0.001 c 0.134,-0.073 0.269,-0.147 0.402,-0.222 h 10e-4 c 0.132,-0.075 0.266,-0.151 0.398,-0.227 0.133,-0.076 0.265,-0.154 0.397,-0.232 0.921,-0.546 1.817,-1.13 2.687,-1.749 0.496,-0.354 0.984,-0.72 1.464,-1.097 1.196,-0.942 2.337,-1.954 3.412,-3.03 0.169,-0.169 0.336,-0.339 0.502,-0.511 v 0 c 0.165,-0.172 0.329,-0.345 0.491,-0.52 l 10e-4,-10e-4 0.02,-0.021 0.202,-0.219 0.019,-0.023 0.002,-10e-4 0.019,-0.021 0.019,-0.022 0.041,-0.044 h -10e-4 c 3.861,-4.263 6.772,-9.399 8.393,-15.066 -0.546,-0.239 -1.049,-0.557 -1.497,-0.938 -1.638,6.036 -4.804,11.461 -9.052,15.828 l -0.006,0.006 -0.006,0.006 -0.005,0.006 -0.006,0.006 -0.018,0.018 -0.005,0.006 -0.006,0.005 -0.005,0.007 -0.006,0.006 -0.006,0.006 -0.006,0.005 -0.006,0.006 -0.006,0.006 -0.006,0.006 -0.005,0.006 -0.006,0.006 -0.006,0.006 -10e-4,0.002 -0.005,0.004 -0.006,0.006 -0.006,0.006 -0.006,0.006 -0.005,0.006 -0.006,0.006 -0.211,0.213 c -1.542,1.542 -3.222,2.947 -5.017,4.194 -0.359,0.25 -0.724,0.493 -1.092,0.73 -0.245,0.158 -0.493,0.312 -0.742,0.465 -0.25,0.152 -0.501,0.301 -0.755,0.447 -0.126,0.073 -0.253,0.145 -0.381,0.217 -0.128,0.072 -0.255,0.142 -0.384,0.212 -0.129,0.071 -0.257,0.14 -0.387,0.208 -0.129,0.069 -0.26,0.137 -0.39,0.203 h -0.001 c -0.13,0.068 -0.26,0.134 -0.391,0.2 -0.132,0.065 -0.264,0.129 -0.396,0.194 -0.132,0.063 -0.264,0.127 -0.397,0.189 -0.134,0.062 -0.267,0.124 -0.401,0.185 h -0.001 c -0.133,0.06 -0.267,0.121 -0.402,0.18 -0.135,0.059 -0.27,0.117 -0.405,0.175 -0.136,0.058 -0.272,0.115 -0.408,0.17 -0.137,0.056 -0.274,0.112 -0.411,0.166 -0.137,0.055 -0.275,0.108 -0.413,0.16 -0.137,0.053 -0.276,0.105 -0.415,0.156 h -0.001 c -0.138,0.052 -0.277,0.102 -0.417,0.151 -0.139,0.049 -0.279,0.098 -0.42,0.146 -0.14,0.047 -0.281,0.095 -0.422,0.141 v 0 c -0.141,0.046 -0.283,0.091 -0.424,0.135 -0.142,0.045 -0.285,0.088 -0.427,0.131 -0.143,0.042 -0.285,0.084 -0.429,0.125 -0.143,0.041 -0.287,0.081 -0.43,0.12 -0.145,0.04 -0.289,0.078 -0.434,0.116 -0.145,0.037 -0.289,0.073 -0.435,0.109 -0.145,0.036 -0.291,0.071 -0.437,0.105 -0.146,0.033 -0.292,0.066 -0.439,0.099 H 7.732 C 7.586,-2.496 7.439,-2.464 7.292,-2.434 7.145,-2.404 6.997,-2.375 6.849,-2.346 6.701,-2.317 6.553,-2.29 6.404,-2.263 6.256,-2.236 6.106,-2.21 5.958,-2.186 H 5.957 c -0.148,0.025 -0.298,0.049 -0.448,0.072 -0.15,0.023 -0.3,0.046 -0.45,0.067 -0.151,0.021 -0.301,0.041 -0.452,0.061 H 4.606 C 4.456,-1.967 4.305,-1.949 4.153,-1.931 4.002,-1.914 3.851,-1.897 3.698,-1.882 3.546,-1.866 3.394,-1.852 3.241,-1.838 3.089,-1.824 2.936,-1.812 2.783,-1.8 H 2.782 C 2.63,-1.788 2.477,-1.777 2.323,-1.768 H 2.322 C 2.169,-1.758 2.016,-1.749 1.861,-1.741 1.707,-1.733 1.553,-1.726 1.398,-1.72 H 1.397 C 1.243,-1.714 1.089,-1.709 0.934,-1.706 0.778,-1.701 0.623,-1.698 0.468,-1.697 0.313,-1.694 0.156,-1.693 10e-4,-1.693 H 0 c -0.155,0 -0.312,-0.002 -0.467,-0.004 -0.155,-0.002 -0.31,-0.004 -0.466,-0.009 C -1.088,-1.709 -1.242,-1.714 -1.397,-1.72 -1.552,-1.726 -1.706,-1.733 -1.86,-1.741 -2.015,-1.749 -2.168,-1.758 -2.321,-1.768 H -2.322 C -2.476,-1.777 -2.629,-1.788 -2.782,-1.8 -2.936,-1.812 -3.088,-1.825 -3.24,-1.838 -3.394,-1.852 -3.545,-1.866 -3.697,-1.882 -3.85,-1.897 -4.001,-1.914 -4.152,-1.931 -4.304,-1.949 -4.455,-1.967 -4.605,-1.986 h -10e-4 c -0.151,-0.02 -0.301,-0.04 -0.452,-0.061 -0.15,-0.021 -0.3,-0.044 -0.45,-0.067 H -5.509 C -5.658,-2.137 -5.808,-2.161 -5.957,-2.186 -6.105,-2.21 -6.255,-2.236 -6.403,-2.263 -6.552,-2.29 -6.7,-2.317 -6.848,-2.346 h -0.001 c -0.147,-0.029 -0.295,-0.058 -0.442,-0.088 -0.147,-0.03 -0.294,-0.062 -0.44,-0.094 h -0.001 c -0.147,-0.033 -0.293,-0.065 -0.439,-0.099 -0.146,-0.034 -0.292,-0.069 -0.437,-0.105 -0.146,-0.036 -0.29,-0.072 -0.435,-0.109 h -0.001 c -0.144,-0.038 -0.288,-0.076 -0.433,-0.116 -0.143,-0.039 -0.287,-0.079 -0.43,-0.12 -0.144,-0.041 -0.286,-0.083 -0.429,-0.125 -0.143,-0.043 -0.285,-0.086 -0.427,-0.131 -0.141,-0.044 -0.283,-0.089 -0.424,-0.135 h -0.001 c -0.14,-0.046 -0.281,-0.094 -0.421,-0.141 -0.141,-0.048 -0.281,-0.097 -0.42,-0.146 -0.14,-0.05 -0.28,-0.099 -0.418,-0.151 -0.139,-0.051 -0.278,-0.103 -0.415,-0.156 -0.139,-0.052 -0.276,-0.105 -0.413,-0.16 -0.137,-0.054 -0.274,-0.11 -0.411,-0.166 -0.136,-0.055 -0.272,-0.112 -0.408,-0.17 -0.135,-0.058 -0.27,-0.116 -0.405,-0.175 -0.135,-0.059 -0.27,-0.12 -0.403,-0.18 -0.134,-0.061 -0.267,-0.123 -0.401,-0.185 -0.133,-0.062 -0.265,-0.126 -0.397,-0.189 h -0.001 c -0.132,-0.065 -0.263,-0.129 -0.395,-0.194 -0.131,-0.066 -0.261,-0.132 -0.391,-0.2 h -0.001 c -0.131,-0.066 -0.26,-0.134 -0.39,-0.203 -0.13,-0.068 -0.259,-0.137 -0.387,-0.208 -0.129,-0.07 -0.256,-0.14 -0.384,-0.212 -0.128,-0.071 -0.255,-0.144 -0.381,-0.217 -0.254,-0.146 -0.505,-0.295 -0.755,-0.447 -0.249,-0.153 -0.497,-0.307 -0.742,-0.465 -0.369,-0.237 -0.733,-0.48 -1.092,-0.73 -1.796,-1.247 -3.475,-2.652 -5.017,-4.194 l -0.212,-0.213 -0.005,-0.006 -0.006,-0.006 -0.005,-0.006 -0.006,-0.006 -0.006,-0.006 -0.005,-0.004 -0.001,-0.002 -0.006,-0.006 -0.006,-0.006 -0.005,-0.006 -0.006,-0.006 -0.006,-0.006 -0.006,-0.006 -0.006,-0.005 -0.006,-0.006 -0.006,-0.006 -0.005,-0.007 -0.006,-0.005 -0.006,-0.006 -0.017,-0.018 -0.006,-0.006 -0.006,-0.006 -0.005,-0.006 -0.006,-0.006 c -5.056,-5.197 -8.579,-11.891 -9.818,-19.331 -0.495,0.29 -1.034,0.512 -1.605,0.654 1.268,7.167 4.563,13.659 9.267,18.853 h -0.001 l 0.041,0.044 0.019,0.022 0.019,0.021 0.002,10e-4 0.019,0.023 0.202,0.219 0.02,0.021 v 10e-4 c 0.163,0.175 0.326,0.348 0.492,0.52 v 0 c 0.166,0.172 0.333,0.342 0.501,0.511 1.076,1.076 2.216,2.088 3.413,3.03 0.48,0.377 0.967,0.742 1.464,1.097 0.869,0.619 1.766,1.203 2.687,1.749 0.131,0.078 0.263,0.156 0.396,0.232 h 10e-4 c 0.132,0.076 0.266,0.152 0.398,0.227 h 0.001 c 0.133,0.075 0.267,0.149 0.402,0.222 0.134,0.073 0.269,0.146 0.405,0.218 0.136,0.072 0.271,0.143 0.408,0.213 0.137,0.069 0.274,0.139 0.41,0.208 h 0.001 c 0.137,0.068 0.275,0.136 0.413,0.203 0.139,0.067 0.278,0.133 0.416,0.198 h 10e-4 c 0.139,0.065 0.279,0.13 0.418,0.193 h 10e-4 c 0.14,0.064 0.281,0.127 0.421,0.189 h 0.001 c 0.141,0.062 0.282,0.123 0.424,0.183 0.143,0.06 0.284,0.12 0.428,0.179 0.142,0.058 0.285,0.116 0.429,0.173 v 0 c 0.144,0.057 0.288,0.113 0.432,0.168 0.145,0.055 0.289,0.109 0.435,0.163 0.145,0.053 0.291,0.106 0.437,0.158 0.146,0.052 0.293,0.102 0.44,0.152 0.146,0.05 0.294,0.1 0.441,0.148 h 10e-4 c 0.147,0.047 0.295,0.095 0.443,0.141 h 10e-4 c 0.148,0.047 0.297,0.093 0.446,0.137 h 10e-4 c 0.149,0.045 0.298,0.088 0.448,0.131 0.15,0.043 0.301,0.085 0.451,0.126 0.151,0.042 0.302,0.081 0.453,0.121 0.152,0.039 0.304,0.077 0.456,0.115 0.152,0.037 0.305,0.073 0.457,0.109 0.154,0.035 0.307,0.07 0.46,0.103 0.154,0.034 0.308,0.066 0.461,0.099 h 0.001 c 0.154,0.031 0.309,0.062 0.463,0.092 h 10e-4 c 0.154,0.03 0.31,0.058 0.465,0.087 0.156,0.028 0.311,0.055 0.468,0.081 0.156,0.026 0.312,0.051 0.469,0.075 0.157,0.024 0.314,0.047 0.471,0.07 0.158,0.022 0.316,0.043 0.473,0.063 h 0.001 c 0.158,0.02 0.315,0.039 0.474,0.058 0.159,0.018 0.318,0.036 0.477,0.052 0.159,0.016 0.318,0.031 0.478,0.046 0.16,0.014 0.32,0.027 0.48,0.04 0.16,0.012 0.321,0.023 0.481,0.033 0.161,0.011 0.323,0.02 0.484,0.028 0.161,0.008 0.322,0.016 0.484,0.022 0.162,0.006 0.324,0.011 0.486,0.015 0.164,0.005 0.326,0.008 0.488,0.01 h 0.001 C -0.326,-0.001 -0.163,0 0,0 m -27.827,-12.191 c 0.163,0.174 0.326,0.348 0.492,0.52" /></g><g
           transform="translate(111.6279,272.1631)"
           id="g44"><path
             id="path46"
             style="fill:#ffffff;fill-opacity:1;fill-rule:evenodd;stroke:none"
             d="m 0,0 v -16.42 -5.738 -18.297 c 0,-2.012 1.646,-3.658 3.657,-3.658 2.012,0 3.657,1.646 3.657,3.658 v 14.336 3.961 19.406 c 0,0.559 0.458,1.016 1.017,1.016 0.559,0 1.016,-0.457 1.016,-1.016 v -19.406 -3.961 -14.336 c 0,-2.012 1.646,-3.658 3.657,-3.658 h 0.001 c 2.011,0 3.657,1.646 3.657,3.658 v 18.297 5.738 24.895 h 0.061 v 15.24 c 0,0.558 0.457,1.015 1.016,1.015 0.559,0 1.016,-0.457 1.016,-1.015 V 8.508 0.348 -2.621 c 0,-1.565 1.28,-2.844 2.845,-2.844 1.564,0 2.844,1.279 2.844,2.844 v 17.435 1.26 13.086 c 0,3.487 -2.852,6.34 -6.34,6.34 H -1.321 c -3.487,0 -6.339,-2.853 -6.339,-6.34 V 16.074 14.814 -2.621 c 0,-1.565 1.279,-2.844 2.845,-2.844 1.564,0 2.844,1.279 2.844,2.844 v 2.969 8.16 15.207 c 0,0.558 0.457,1.015 1.016,1.015 0.559,0 1.016,-0.457 1.016,-1.015 V 0.348 C 0.061,0.227 0.039,0.109 0,0 m 8.392,51.603 c 3.942,0 7.137,-3.196 7.137,-7.138 0,-3.941 -3.195,-7.136 -7.137,-7.136 -3.942,0 -7.137,3.195 -7.137,7.136 0,3.942 3.195,7.138 7.137,7.138" /></g><g
           transform="translate(72.6963,290.5557)"
           id="g48"><path
             id="path50"
             style="fill:#ffffff;fill-opacity:1;fill-rule:evenodd;stroke:none"
             d="m 0,0 v -11.729 -4.099 -13.068 c 0,-1.438 1.176,-2.614 2.612,-2.614 1.437,0 2.613,1.176 2.613,2.614 v 10.238 2.83 13.861 c 0,0.401 0.326,0.727 0.725,0.727 0.4,0 0.727,-0.326 0.727,-0.727 v -13.861 -2.83 -10.238 c 0,-1.438 1.175,-2.614 2.612,-2.614 1.437,0 2.612,1.176 2.612,2.614 v 13.068 4.099 17.782 h 0.044 v 10.886 c 0,0.399 0.326,0.726 0.726,0.726 0.398,0 0.725,-0.327 0.725,-0.726 V 6.078 0.248 -1.871 c 0,-1.117 0.915,-2.033 2.032,-2.033 h 10e-4 c 1.117,0 2.031,0.916 2.031,2.033 v 12.453 0.9 9.347 c 0,2.491 -2.037,4.528 -4.528,4.528 H -0.943 c -2.492,0 -4.53,-2.037 -4.53,-4.528 v -9.347 -0.9 -12.453 c 0,-1.117 0.915,-2.033 2.033,-2.033 1.118,0 2.032,0.916 2.032,2.033 v 2.119 5.83 10.861 c 0,0.399 0.326,0.726 0.725,0.726 0.4,0 0.726,-0.327 0.726,-0.726 V 0.248 C 0.043,0.162 0.028,0.078 0,0 m 5.994,36.86 c 2.816,0 5.099,-2.282 5.099,-5.098 0,-2.816 -2.283,-5.098 -5.099,-5.098 -2.815,0 -5.098,2.282 -5.098,5.098 0,2.816 2.283,5.098 5.098,5.098" /></g><g
           transform="translate(150.5537,294.6768)"
           id="g52"><path
             id="path54"
             style="fill:#ffffff;fill-opacity:1;fill-rule:evenodd;stroke:none"
             d="m 0,0 v -11.73 -4.098 -13.07 c 0,-1.438 1.176,-2.614 2.613,-2.614 1.437,0 2.613,1.176 2.613,2.614 v 10.24 2.83 13.861 c 0,0.399 0.326,0.725 0.725,0.725 0.4,0 0.726,-0.326 0.726,-0.725 v -13.861 -2.83 -10.24 c 0,-1.438 1.176,-2.614 2.613,-2.614 1.437,0 2.612,1.176 2.612,2.614 v 13.07 4.098 17.782 h 0.043 v 10.886 c 0,0.399 0.327,0.726 0.727,0.726 0.398,0 0.725,-0.327 0.725,-0.726 V 6.076 0.246 -1.873 c 0,-1.117 0.915,-2.031 2.032,-2.031 h 10e-4 c 1.117,0 2.031,0.914 2.031,2.031 v 12.454 0.899 9.348 c 0,2.49 -2.037,4.528 -4.528,4.528 H -0.943 c -2.491,0 -4.529,-2.038 -4.529,-4.528 V 11.48 10.581 -1.873 c 0,-1.117 0.915,-2.031 2.033,-2.031 1.118,0 2.032,0.914 2.032,2.031 v 2.119 5.83 10.862 c 0,0.399 0.326,0.726 0.725,0.726 0.4,0 0.726,-0.327 0.726,-0.726 V 0.246 C 0.044,0.16 0.028,0.076 0,0 m 5.995,36.859 c 2.816,0 5.098,-2.283 5.098,-5.098 0,-2.816 -2.282,-5.098 -5.098,-5.098 -2.815,0 -5.099,2.282 -5.099,5.098 0,2.815 2.284,5.098 5.099,5.098" /></g><g
           transform="translate(129.5439,364.7959)"
           id="g56"><path
             id="path58"
             style="fill:#ffffff;fill-opacity:1;fill-rule:nonzero;stroke:none"
             d="M 0,0 C 7.061,0 13.566,-2.771 18.777,-7.439 18.324,-7.78 17.92,-8.182 17.578,-8.634 12.681,-4.277 6.593,-1.693 0,-1.693 c -8.067,0 -15.378,-3.868 -20.677,-10.119 -0.557,-0.658 -1.094,-1.343 -1.606,-2.053 -0.316,0.485 -0.714,0.909 -1.176,1.255 0.479,0.651 0.977,1.281 1.492,1.89 C -16.353,-4.097 -8.587,0 0,0" /></g><g
           transform="translate(140.0322,367.23)"
           id="g60"><path
             id="path62"
             style="fill:#ffffff;fill-opacity:1;fill-rule:nonzero;stroke:none"
             d="m 0,0 c 4.306,0 8.277,-3.185 11.577,-8.671 -0.61,-0.035 -1.196,-0.16 -1.746,-0.362 -2.901,4.658 -6.268,7.34 -9.831,7.34 -5.187,0 -9.958,-5.682 -13.481,-14.869 -2.679,-6.986 -4.602,-15.957 -5.418,-26.003 -0.365,0.05 -0.736,0.076 -1.114,0.076 -0.195,0 -0.388,-0.007 -0.58,-0.021 0.026,0.313 0.051,0.624 0.079,0.934 0.869,9.866 2.795,18.689 5.451,25.616 C -11.28,-6.1 -5.961,0 0,0" /></g><g
           transform="translate(93.4727,362.2183)"
           id="g64"><path
             id="path66"
             style="fill:#ffffff;fill-opacity:1;fill-rule:nonzero;stroke:none"
             d="m 0,0 c 4.207,0 7.997,-3.471 10.847,-9.199 -0.374,0.092 -0.766,0.14 -1.168,0.14 -0.262,0 -0.518,-0.02 -0.769,-0.059 -2.484,4.645 -5.586,7.425 -8.91,7.425 -3.879,0 -7.456,-3.786 -10.103,-9.907 -2.494,-5.766 -4.121,-13.555 -4.392,-22.234 -0.095,0.004 -0.192,0.007 -0.287,0.007 -0.487,0 -0.959,-0.058 -1.411,-0.165 0.258,8.969 1.946,17.056 4.542,23.06 C -8.73,-4.178 -4.615,0 0,0" /></g></g></g></g></svg>
